<svg xmlns="http://www.w3.org/2000/svg" xmlns:xlink="http://www.w3.org/1999/xlink" viewBox="0 0 80 80.01"><defs><style>.cls-1{fill:url(#Degradado_sin_nombre_7);}</style><linearGradient id="Degradado_sin_nombre_7" x1="60" y1="5.35" x2="19.99" y2="74.64" gradientUnits="userSpaceOnUse"><stop offset="0.21" stop-color="#00e1ff"/><stop offset="0.67" stop-color="#15c5ed"/><stop offset="0.76" stop-color="#2ea4d8"/><stop offset="0.85" stop-color="#408dc8"/><stop offset="0.93" stop-color="#4a7fbf"/><stop offset="1" stop-color="#4e7abc"/></linearGradient></defs><g id="Capa_2" data-name="Capa 2"><g id="Capa_1-2" data-name="Capa 1"><path class="cls-1" d="M77.63,43.72l-4.1-1.08a38.47,38.47,0,0,0,0-5.26l4.1-1.11a3.19,3.19,0,0,0,2.26-3.92l-1.54-5.69a3.17,3.17,0,0,0-3.9-2.23l-4.11,1.08a33.34,33.34,0,0,0-2.62-4.57l3-3a3.26,3.26,0,0,0,.94-2.27,3.15,3.15,0,0,0-.94-2.23L66.55,9.29a3.17,3.17,0,0,0-4.52,0l-3,3a34.25,34.25,0,0,0-4.57-2.62l1.1-4.1a3.23,3.23,0,0,0-2.25-3.93L47.64.11a3.2,3.2,0,0,0-3.92,2.27l-1.1,4.1a32.86,32.86,0,0,0-5.25,0l-1.11-4.1A3.2,3.2,0,0,0,32.35.11L26.67,1.62a3.2,3.2,0,0,0-2.25,3.93l1.08,4.1A34.66,34.66,0,0,0,21,12.27l-3-3a3.15,3.15,0,0,0-4.5,0L9.27,13.46a3.19,3.19,0,0,0,0,4.5l3,3a34.48,34.48,0,0,0-2.63,4.57l-4.1-1.08a3.19,3.19,0,0,0-3.92,2.23L.12,32.35a3.18,3.18,0,0,0,.3,2.44,3.25,3.25,0,0,0,1.94,1.48l4.11,1.11a35.52,35.52,0,0,0,0,5.26L2.36,43.72A3.26,3.26,0,0,0,.42,45.23a3.11,3.11,0,0,0-.3,2.41l1.51,5.68a3.2,3.2,0,0,0,3.92,2.27l4.87-1.3A1.32,1.32,0,0,0,11,54l7.9-7.91a1.23,1.23,0,0,0,.34-1.16,21.58,21.58,0,0,1,26.41-26L29.85,34.61a1.17,1.17,0,0,0-.32,1.16A20.26,20.26,0,0,0,44.24,50.48a1.28,1.28,0,0,0,1.17-.32L61.15,34.4a21.85,21.85,0,0,1-5.63,20.72,21.53,21.53,0,0,1-20.43,5.69,1.22,1.22,0,0,0-1.15.32L26,69a1.57,1.57,0,0,0-.33.57l-1.29,4.86a3.16,3.16,0,0,0,2.25,3.92l5.68,1.55a3.41,3.41,0,0,0,.85.07,3.11,3.11,0,0,0,1.58-.43,3,3,0,0,0,1.48-1.91l1.11-4.13a32.86,32.86,0,0,0,5.25,0l1.1,4.13a3.23,3.23,0,0,0,3.92,2.27l5.69-1.55a3.2,3.2,0,0,0,2.25-3.92l-1.1-4.1a32.19,32.19,0,0,0,4.57-2.62l3,3a3.25,3.25,0,0,0,4.52,0l4.17-4.18a3.24,3.24,0,0,0,.94-2.26,3.19,3.19,0,0,0-.94-2.24l-3-3a32.33,32.33,0,0,0,2.62-4.53l4.11,1.08a3.18,3.18,0,0,0,3.9-2.27l1.54-5.68a3.16,3.16,0,0,0-.32-2.41A3.23,3.23,0,0,0,77.63,43.72ZM77.52,47,76,52.71a.74.74,0,0,1-.9.5L70,51.85a1.24,1.24,0,0,0-1.44.68,30.84,30.84,0,0,1-3.41,5.94,1.21,1.21,0,0,0,.12,1.58L69,63.79a.81.81,0,0,1,.22.51.77.77,0,0,1-.22.53L64.82,69a.73.73,0,0,1-1,0L60,65.27a1.2,1.2,0,0,0-1.59-.14,32.24,32.24,0,0,1-5.91,3.41A1.23,1.23,0,0,0,51.85,70l1.37,5.11a.76.76,0,0,1-.52.9L47,77.54a.8.8,0,0,1-.91-.54l-1.36-5.11a1.22,1.22,0,0,0-1.19-.9h-.13a31.19,31.19,0,0,1-6.83,0,1.22,1.22,0,0,0-1.31.9L33.9,77a.79.79,0,0,1-.9.54L27.3,76a.71.71,0,0,1-.43-.32.76.76,0,0,1-.1-.58L28,70.52l7.19-7.16A24.07,24.07,0,0,0,62.88,31.67a1.15,1.15,0,0,0-.88-.76,1.12,1.12,0,0,0-1.14.32L44.17,47.89a17.69,17.69,0,0,1-12.09-12l16.7-16.7A1.21,1.21,0,0,0,49.12,18a1.18,1.18,0,0,0-.79-.9A24,24,0,0,0,16.65,44.8L9.47,52,4.9,53.21a.75.75,0,0,1-.9-.5L2.47,47a.75.75,0,0,1,.52-.9l5.13-1.37A1.21,1.21,0,0,0,9,43.43a31.28,31.28,0,0,1,0-6.84,1.26,1.26,0,0,0-.9-1.33L3,33.9a.75.75,0,0,1-.52-.9L4,27.31a.72.72,0,0,1,.9-.5L10,28.17a1.22,1.22,0,0,0,1.44-.71,32,32,0,0,1,3.4-5.91A1.18,1.18,0,0,0,14.74,20L11,16.23a.73.73,0,0,1,0-1L15.17,11a.76.76,0,0,1,1,0l3.72,3.75a1.23,1.23,0,0,0,1.6.1,32.7,32.7,0,0,1,5.92-3.42A1.19,1.19,0,0,0,28.14,10L26.77,4.93A.77.77,0,0,1,27.3,4L33,2.49a.73.73,0,0,1,.9.5L35.27,8.1A1.26,1.26,0,0,0,36.58,9a30,30,0,0,1,6.83,0,1.24,1.24,0,0,0,1.32-.94L46.09,3a.75.75,0,0,1,.91-.5L52.7,4a.8.8,0,0,1,.52.93L51.85,10a1.19,1.19,0,0,0,.69,1.43,32.28,32.28,0,0,1,5.91,3.42,1.22,1.22,0,0,0,1.59-.1L63.78,11a.75.75,0,0,1,1,0L69,15.19a.76.76,0,0,1,.22.5.78.78,0,0,1-.22.54L65.25,20a1.2,1.2,0,0,0-.12,1.58,30.9,30.9,0,0,1,3.41,5.91,1.22,1.22,0,0,0,1.44.71l5.11-1.36a.72.72,0,0,1,.9.5L77.52,33a.74.74,0,0,1-.54.9l-5.09,1.36A1.28,1.28,0,0,0,71,36.59a30.09,30.09,0,0,1,0,6.84,1.23,1.23,0,0,0,.92,1.29L77,46.09A.74.74,0,0,1,77.52,47Z"/></g></g></svg>