<svg xmlns="http://www.w3.org/2000/svg" xmlns:xlink="http://www.w3.org/1999/xlink" viewBox="0 0 505.31 281.29"><defs><style>.cls-1{fill:#f5f5f5;}.cls-2{fill:#e1e1e1;}.cls-3{fill:#fff;}.cls-4{fill:#fafafa;}.cls-5{fill:#ececec;}.cls-6{fill:#1a2e35;}.cls-7{fill:#c78976;}.cls-8{fill:#bf654e;}.cls-9{fill:#ff4f5b;}.cls-10{fill:#b3b3b3;}.cls-11{opacity:0.6;}.cls-12{fill:url(#Degradado_sin_nombre_7);}.cls-13{opacity:0.4;}.cls-14{fill:url(#Degradado_sin_nombre_7-2);}.cls-15{fill:url(#Degradado_sin_nombre_7-3);}.cls-16{fill:url(#Degradado_sin_nombre_7-4);}.cls-17{fill:#375a64;}.cls-18{opacity:0.3;}.cls-19{fill:url(#Degradado_sin_nombre_7-5);}.cls-20{fill:#ffbf9d;}.cls-21{fill:#ff9a6c;}.cls-22{fill:url(#Degradado_sin_nombre_7-6);}.cls-23{fill:url(#Degradado_sin_nombre_7-7);}.cls-24{fill:url(#Degradado_sin_nombre_7-8);}.cls-25{fill:url(#Degradado_sin_nombre_7-9);}.cls-26{fill:url(#Degradado_sin_nombre_7-10);}.cls-27{fill:#ae4f32;}.cls-28{opacity:0.2;}.cls-29{fill:url(#Degradado_sin_nombre_7-11);}.cls-30{fill:#020153;}</style><linearGradient id="Degradado_sin_nombre_7" x1="303.75" y1="78.42" x2="306.8" y2="78.42" gradientUnits="userSpaceOnUse"><stop offset="0.21" stop-color="#00e1ff"/><stop offset="0.67" stop-color="#15c5ed"/><stop offset="0.76" stop-color="#2ea4d8"/><stop offset="0.85" stop-color="#408dc8"/><stop offset="0.93" stop-color="#4a7fbf"/><stop offset="1" stop-color="#4e7abc"/></linearGradient><linearGradient id="Degradado_sin_nombre_7-2" x1="311.27" y1="76.56" x2="309.44" y2="79.72" xlink:href="#Degradado_sin_nombre_7"/><linearGradient id="Degradado_sin_nombre_7-3" x1="318.48" y1="86.12" x2="301.49" y2="115.55" xlink:href="#Degradado_sin_nombre_7"/><linearGradient id="Degradado_sin_nombre_7-4" x1="309.54" y1="76.35" x2="306.86" y2="81" xlink:href="#Degradado_sin_nombre_7"/><linearGradient id="Degradado_sin_nombre_7-5" x1="266.5" y1="142.68" x2="243.36" y2="165.82" xlink:href="#Degradado_sin_nombre_7"/><linearGradient id="Degradado_sin_nombre_7-6" x1="366.91" y1="140.78" x2="359.11" y2="154.28" xlink:href="#Degradado_sin_nombre_7"/><linearGradient id="Degradado_sin_nombre_7-7" x1="424.06" y1="123.3" x2="393.1" y2="176.93" xlink:href="#Degradado_sin_nombre_7"/><linearGradient id="Degradado_sin_nombre_7-8" x1="173.33" y1="93.38" x2="157.76" y2="120.34" xlink:href="#Degradado_sin_nombre_7"/><linearGradient id="Degradado_sin_nombre_7-9" x1="209.24" y1="91.81" x2="181.51" y2="139.84" xlink:href="#Degradado_sin_nombre_7"/><linearGradient id="Degradado_sin_nombre_7-10" x1="220.21" y1="102.78" x2="202.24" y2="133.91" xlink:href="#Degradado_sin_nombre_7"/><linearGradient id="Degradado_sin_nombre_7-11" x1="108.86" y1="150.64" x2="43.84" y2="263.26" xlink:href="#Degradado_sin_nombre_7"/></defs><g id="Capa_2" data-name="Capa 2"><g id="Capa_1-2" data-name="Capa 1"><polygon class="cls-1" points="197.22 257.99 197.22 275.09 222.22 275.09 249.8 275.09 249.8 257.99 197.22 257.99"/><polygon class="cls-2" points="195.01 253.21 195.01 257.99 251.64 257.99 251.64 253.21 222.22 253.21 195.01 253.21"/><polygon class="cls-2" points="223.33 275.09 249.8 275.09 249.8 257.99 251.64 257.99 251.64 253.21 222.22 253.21 222.22 257.55 223.33 275.09"/><rect class="cls-2" x="204.57" y="260.75" width="10.66" height="2.57"/><rect class="cls-3" x="203.2" y="266.54" width="13.69" height="5.44"/><polygon class="cls-1" points="202.05 236.13 202.05 253.23 227.05 253.23 254.63 253.23 254.63 236.13 202.05 236.13"/><polygon class="cls-2" points="199.84 231.35 199.84 236.13 256.47 236.13 256.47 231.35 227.05 231.35 199.84 231.35"/><polygon class="cls-2" points="228.16 253.23 254.63 253.23 254.63 236.13 256.47 236.13 256.47 231.35 227.05 231.35 227.05 235.69 228.16 253.23"/><rect class="cls-2" x="209.4" y="238.89" width="10.66" height="2.57"/><rect class="cls-3" x="208.03" y="244.68" width="13.69" height="5.44"/><path class="cls-1" d="M24.05,153s-2.75,2.08-2.75,4.83V171.9H41.83V157.19s-.29-3.6-2.7-4.2Z"/><path class="cls-2" d="M22.85,171.14a41.42,41.42,0,0,1-.3-4.33A3.47,3.47,0,0,1,25,163.62a7.87,7.87,0,0,1,3.32.29,8.86,8.86,0,0,0,5.31-.8c1.39-.69,2.66-1.76,4.2-1.9a2.26,2.26,0,0,1,2.45,1.35,3.45,3.45,0,0,1,0,1.43c-.33,2.17.09,4.86.09,6.95-5.75.27-11.7.08-17.46.2"/><polyline class="cls-2" points="20 173.89 23.09 171.91 41.83 171.91 44.84 173.89 20 173.89"/><path class="cls-1" d="M19.41,128.09v21H44.84v24.84H20v6H62.85V128.09a4.46,4.46,0,0,0-4.46-4.46H23.88A4.47,4.47,0,0,0,19.41,128.09Z"/><path class="cls-2" d="M62.85,128.57c0,.1-9.72.18-21.72.18s-21.72-.08-21.72-.18,9.73-.18,21.72-.18S62.85,128.47,62.85,128.57Z"/><path class="cls-2" d="M50.79,179.85c-.1,0-.18-12.55-.18-28s.08-28,.18-28,.19,12.55.19,28S50.89,179.85,50.79,179.85Z"/><path class="cls-2" d="M17.11,165.11l-.25-6.35a8.55,8.55,0,0,1,1.38-5.18A4.53,4.53,0,0,1,22,151.32H39.13V153H22.3s-3,.32-3.43,4.47a40.84,40.84,0,0,0,0,7.65Z"/><rect class="cls-2" x="32.7" y="261.12" width="7.52" height="13.56"/><rect class="cls-2" x="65.92" y="261.12" width="7.52" height="13.56"/><rect class="cls-2" x="16.17" y="179.85" width="62.28" height="81.27"/><rect class="cls-1" x="4.76" y="179.85" width="60.66" height="81.27"/><rect class="cls-1" x="10.13" y="261.12" width="7.52" height="13.56"/><rect class="cls-1" x="53.36" y="261.12" width="7.52" height="13.56"/><path class="cls-2" d="M60.6,251.84s0-.13,0-.36v-1c0-.92,0-2.26,0-4,0-3.46,0-8.47,0-14.69l.08.09-52.06,0h0l.12-.13c0,7,0,13.79,0,20.07l-.11-.12,37.29.05,10.85,0h2.93l-2.88,0-10.82,0L8.54,252H8.42v-.11c0-6.28,0-13.05,0-20.07v-.12h.13l52.06,0h.09v.08c0,6.25,0,11.27,0,14.74,0,1.72,0,3.05,0,4v1C60.61,251.72,60.6,251.84,60.6,251.84Z"/><path class="cls-2" d="M36.14,241.81s0-.14-.09-.38a1.6,1.6,0,0,0-.58-.81,1.5,1.5,0,0,0-1.4-.18,1.46,1.46,0,0,0,0,2.74,1.53,1.53,0,0,0,1.4-.19,1.6,1.6,0,0,0,.58-.81c.07-.23.07-.38.09-.37a.78.78,0,0,1,0,.39,1.57,1.57,0,0,1-.57.92,1.67,1.67,0,0,1-1.58.27,1.68,1.68,0,0,1,0-3.17,1.67,1.67,0,0,1,1.58.27,1.6,1.6,0,0,1,.57.92A.85.85,0,0,1,36.14,241.81Z"/><path class="cls-2" d="M60.6,227.81s0-.12,0-.36v-1c0-.91,0-2.25,0-4,0-3.46,0-8.46,0-14.68l.08.08-52.06,0h0l.12-.12c0,7,0,13.79,0,20.06l-.11-.12,37.29.06,10.85,0,2.91,0H56.73l-10.82,0-37.37.06H8.42v-.12c0-6.27,0-13.05,0-20.06v-.12h.13l52.06,0h.09v.08c0,6.24,0,11.26,0,14.73,0,1.72,0,3.05,0,4v1C60.61,227.7,60.6,227.81,60.6,227.81Z"/><path class="cls-2" d="M36.14,217.78s0-.14-.09-.37a1.6,1.6,0,0,0-.58-.81,1.5,1.5,0,0,0-1.4-.19,1.46,1.46,0,0,0,0,2.74,1.5,1.5,0,0,0,1.4-.19,1.6,1.6,0,0,0,.58-.81c.07-.23.07-.37.09-.37a.83.83,0,0,1,0,.4,1.6,1.6,0,0,1-.57.92,1.64,1.64,0,0,1-1.58.26,1.67,1.67,0,0,1,0-3.16,1.64,1.64,0,0,1,1.58.26,1.62,1.62,0,0,1,.57.93A.79.79,0,0,1,36.14,217.78Z"/><path class="cls-2" d="M60.6,204.11s0-.12,0-.36v-1c0-.91,0-2.25,0-4,0-3.46,0-8.46,0-14.68l.08.08-52.06,0h0l.12-.12c0,7,0,13.79,0,20.06L8.54,204l37.29.06,10.85,0,2.91,0H56.73l-10.82,0-37.37.06H8.42v-.12c0-6.27,0-13.05,0-20.06v-.12h.13l52.06,0h.09v.09c0,6.24,0,11.26,0,14.73,0,1.72,0,3.05,0,4v1C60.61,204,60.6,204.11,60.6,204.11Z"/><path class="cls-2" d="M36.14,194.08s0-.14-.09-.37a1.6,1.6,0,0,0-.58-.81,1.5,1.5,0,0,0-1.4-.19,1.46,1.46,0,0,0,0,2.74,1.5,1.5,0,0,0,1.4-.19,1.6,1.6,0,0,0,.58-.81c.07-.23.07-.37.09-.37a.83.83,0,0,1,0,.4A1.63,1.63,0,0,1,34,195.66a1.67,1.67,0,0,1,0-3.16,1.63,1.63,0,0,1,2.15,1.18A.83.83,0,0,1,36.14,194.08Z"/><path class="cls-2" d="M62.23,179.85c0,.1-9.45.18-21.1.18S20,180,20,179.85s9.44-.18,21.09-.18S62.23,179.75,62.23,179.85Z"/><rect class="cls-4" x="239.99" y="57.94" width="54.77" height="49"/><path class="cls-2" d="M294.76,106.94s0-.32,0-.91,0-1.48,0-2.63c0-2.3,0-5.66,0-10,0-8.56,0-20.79-.06-35.51l.12.12-54.77,0h0l.15-.14c0,17.82,0,34.6,0,49l-.13-.13,39.61.06,11.18,0h3l-2.93,0-11.14,0-39.7.07h-.13v-.13c0-14.4,0-31.18,0-49v-.15H240l54.77,0h.12v.13c0,14.75,0,27-.06,35.59,0,4.27,0,7.63,0,9.92,0,1.14,0,2,0,2.6S294.76,106.94,294.76,106.94Z"/><path class="cls-2" d="M261,66.64c0,.08-2.88.15-6.44.15s-6.44-.07-6.44-.15,2.89-.14,6.44-.14S261,66.56,261,66.64Z"/><path class="cls-2" d="M284.2,70.32c0,.08-7.92.15-17.69.15s-17.69-.07-17.69-.15,7.92-.14,17.69-.14S284.2,70.24,284.2,70.32Z"/><rect class="cls-2" x="248.21" y="76.55" width="2.31" height="2.31"/><rect class="cls-2" x="253.89" y="76.55" width="2.31" height="2.31"/><rect class="cls-2" x="259.67" y="76.45" width="2.31" height="2.31"/><rect class="cls-2" x="265.25" y="76.55" width="2.31" height="2.31"/><rect class="cls-2" x="270.93" y="76.55" width="2.31" height="2.31"/><rect class="cls-2" x="276.61" y="76.55" width="2.31" height="2.31"/><rect class="cls-5" x="282.29" y="76.55" width="2.31" height="2.31"/><rect class="cls-5" x="248.21" y="81.46" width="2.31" height="2.31"/><rect class="cls-2" x="253.89" y="81.46" width="2.31" height="2.31"/><rect class="cls-5" x="259.57" y="81.46" width="2.31" height="2.31"/><rect class="cls-2" x="265.25" y="81.46" width="2.31" height="2.31"/><rect class="cls-2" x="270.93" y="81.46" width="2.31" height="2.31"/><rect class="cls-2" x="276.71" y="81.35" width="2.31" height="2.31"/><rect class="cls-2" x="282.29" y="81.46" width="2.31" height="2.31"/><rect class="cls-2" x="248.21" y="86.36" width="2.31" height="2.31"/><rect class="cls-2" x="253.99" y="86.26" width="2.31" height="2.31"/><rect class="cls-2" x="259.57" y="86.36" width="2.31" height="2.31"/><rect class="cls-5" x="265.25" y="86.36" width="2.31" height="2.31"/><rect class="cls-2" x="270.93" y="86.36" width="2.31" height="2.31"/><rect class="cls-2" x="276.61" y="86.36" width="2.31" height="2.31"/><rect class="cls-2" x="282.29" y="86.36" width="2.31" height="2.31"/><rect class="cls-2" x="248.21" y="91.27" width="2.31" height="2.31"/><rect class="cls-2" x="253.89" y="91.27" width="2.31" height="2.31"/><rect class="cls-2" x="259.57" y="91.27" width="2.31" height="2.31"/><rect class="cls-2" x="265.35" y="91.17" width="2.31" height="2.31"/><rect class="cls-2" x="270.93" y="91.27" width="2.31" height="2.31"/><rect class="cls-5" x="276.61" y="91.27" width="2.31" height="2.31"/><rect class="cls-2" x="282.29" y="91.27" width="2.31" height="2.31"/><rect class="cls-2" x="248.21" y="96.18" width="2.31" height="2.31"/><rect class="cls-5" x="253.89" y="96.18" width="2.31" height="2.31"/><rect class="cls-2" x="259.57" y="96.18" width="2.31" height="2.31"/><rect class="cls-2" x="265.25" y="96.18" width="2.31" height="2.31"/><rect class="cls-2" x="270.93" y="96.18" width="2.31" height="2.31"/><rect class="cls-2" x="276.71" y="96.07" width="2.31" height="2.31"/><rect class="cls-2" x="282.29" y="96.18" width="2.31" height="2.31"/><path class="cls-2" d="M456.42,94.82s0-.54,0-1.56,0-2.54,0-4.51c0-4,0-9.74,0-17.12,0-14.75,0-35.86-.08-61.33l.16.15-106.22,0h0l.19-.18c0,30.51,0,59.35,0,84.52l-.17-.17,76.74.08,21.73,0,5.76,0h0l-5.73,0-21.7,0L350.19,95H350v-.16c0-25.17,0-54,0-84.52v-.18h.19l106.22,0h.15v.15c0,25.51-.06,46.65-.08,61.42,0,7.37,0,13.15,0,17.09,0,2,0,3.46,0,4.48S456.42,94.82,456.42,94.82Z"/><rect class="cls-2" x="363.92" y="25.96" width="3.84" height="42.9"/><rect class="cls-5" x="371.34" y="40.53" width="3.84" height="28.33"/><rect class="cls-2" x="378.75" y="31.3" width="3.84" height="37.78"/><rect class="cls-5" x="386.17" y="27.62" width="3.84" height="41.24"/><rect class="cls-2" x="393.58" y="41.4" width="3.84" height="27.46"/><rect class="cls-5" x="401" y="46.79" width="3.84" height="22.07"/><rect class="cls-2" x="408.42" y="30.37" width="3.84" height="38.49"/><rect class="cls-5" x="415.83" y="37.31" width="3.84" height="31.55"/><rect class="cls-2" x="423.25" y="31.76" width="3.84" height="37.1"/><rect class="cls-5" x="430.66" y="43.58" width="3.84" height="25.28"/><rect class="cls-2" x="438.08" y="38.78" width="3.84" height="30.08"/><path class="cls-2" d="M443.49,71.85c0,.08-18.22.16-40.69.16s-40.7-.08-40.7-.16,18.22-.16,40.7-.16S443.49,71.76,443.49,71.85Z"/><path class="cls-2" d="M369.4,75.22a25.46,25.46,0,0,1-5.7,0,27.15,27.15,0,0,1,5.7,0Z"/><path class="cls-2" d="M378.86,75.4a38.84,38.84,0,0,1-6.82,0,36.42,36.42,0,0,1,6.82,0Z"/><path class="cls-2" d="M386.92,75.4a38.72,38.72,0,0,1-6.81,0,36.31,36.31,0,0,1,6.81,0Z"/><path class="cls-2" d="M395,75.4a38.84,38.84,0,0,1-6.82,0,36.42,36.42,0,0,1,6.82,0Z"/><path class="cls-2" d="M403.05,75.4a38.72,38.72,0,0,1-6.81,0,36.31,36.31,0,0,1,6.81,0Z"/><path class="cls-2" d="M411.12,75.4a38.84,38.84,0,0,1-6.82,0,36.42,36.42,0,0,1,6.82,0Z"/><path class="cls-2" d="M419.18,75.4a38.72,38.72,0,0,1-6.81,0,36.31,36.31,0,0,1,6.81,0Z"/><path class="cls-2" d="M427.24,75.4a38.72,38.72,0,0,1-6.81,0,36.31,36.31,0,0,1,6.81,0Z"/><path class="cls-2" d="M435.31,75.4a38.72,38.72,0,0,1-6.81,0,36.31,36.31,0,0,1,6.81,0Z"/><path class="cls-2" d="M443.37,75.4a38.72,38.72,0,0,1-6.81,0,36.31,36.31,0,0,1,6.81,0Z"/><rect class="cls-5" x="346.79" y="9.8" width="112.64" height="3.18"/><polygon class="cls-2" points="252.27 98.6 251.52 96 253.02 96.07 253.15 98.47 252.27 98.6"/><polyline class="cls-2" points="250.1 98.52 248.4 107.73 244.11 119.9 268.29 116.41 258.53 105.79 254.46 97.89 250.1 98.52"/><path class="cls-2" d="M202.55,163.13c0-.13,0-.26,0-.39a7.68,7.68,0,0,1,15.35,0c0,.13,0,.26,0,.39Z"/><path class="cls-2" d="M210.2,155.38a.32.32,0,0,1-.29-.23L199.74,116.4A.31.31,0,0,1,200,116a.29.29,0,0,1,.37.21L210.5,155a.32.32,0,0,1-.22.38Z"/><path class="cls-2" d="M207.52,156.33a.31.31,0,0,1-.3-.22l-10.16-38.75a.31.31,0,0,1,.59-.16L207.81,156a.29.29,0,0,1-.21.37Z"/><path class="cls-2" d="M196.59,116.71a1.92,1.92,0,1,0,1.91-1.92A1.91,1.91,0,0,0,196.59,116.71Z"/><polygon class="cls-2" points="198.68 116.96 198.33 116.45 234.36 91.6 255.43 103.59 255.13 104.12 234.39 92.32 198.68 116.96"/><rect class="cls-2" x="196.59" y="105.47" width="43.15" height="0.61" transform="translate(-21.41 142.99) rotate(-34.7)"/><path class="cls-2" d="M233.22,92.92A1.73,1.73,0,1,0,235,91.19,1.74,1.74,0,0,0,233.22,92.92Z"/><rect class="cls-2" x="146.45" width="3.47" height="74.58"/><rect class="cls-1" x="96.13" y="0.58" width="49.79" height="74.11" rx="0.05"/><path class="cls-5" d="M146.45,75.26H95.6a0,0,0,0,1,0-.05V.05a0,0,0,0,1,0,0h50.85a.05.05,0,0,1,.05.05V75.21A.05.05,0,0,1,146.45,75.26Zm-49.7-1.15h48.54a0,0,0,0,0,.05,0V1.2a.05.05,0,0,0-.05-.05H96.75a.06.06,0,0,0,0,.05V74.06A.05.05,0,0,0,96.75,74.11Z"/><rect class="cls-4" x="101.14" y="5.15" width="39.85" height="64.92" rx="0.05"/><rect class="cls-5" x="109.83" y="23.55" width="22.38" height="26.23" rx="0.05"/><path class="cls-2" d="M130.44,46.57c0,.09-1.07.57-3.18.32a7.81,7.81,0,0,1-3.57-1.42,7.27,7.27,0,0,1-2.77-4.37,6.26,6.26,0,0,1,2.12-6,6,6,0,0,1,1.61-.94,4.29,4.29,0,0,1,2-.23,3.51,3.51,0,0,1,2,.88,2.62,2.62,0,0,1,.8,2.34,3.88,3.88,0,0,1-1.11,2,7.29,7.29,0,0,1-1.68,1.24,9.36,9.36,0,0,1-4,1.15,8.08,8.08,0,0,1-4.29-1,7.71,7.71,0,0,1-3.15-3.27,6.63,6.63,0,0,1-.57-4.58A6.82,6.82,0,0,1,117.06,29a5.8,5.8,0,0,1,2-1,5,5,0,0,1,2.27-.07,3.76,3.76,0,0,1,2.07,1.16,3.38,3.38,0,0,1,.81,2.21,4.19,4.19,0,0,1-.54,2.11,5.64,5.64,0,0,1-1.27,1.53,8.72,8.72,0,0,1-3.17,1.69,8.11,8.11,0,0,1-3.34.25,6.76,6.76,0,0,1-2.9-1.11,6.28,6.28,0,0,1-2.77-4.39,5.31,5.31,0,0,1,1-3.76,4.5,4.5,0,0,1,1.9-1.52c.53-.2.82-.19.84-.14s-.24.18-.66.47A4.86,4.86,0,0,0,111.87,28a4.69,4.69,0,0,0-.6,3.22,5.24,5.24,0,0,0,2.46,3.45,6.1,6.1,0,0,0,5.08.49,7.27,7.27,0,0,0,2.55-1.44,3.15,3.15,0,0,0,1.19-2.39A1.72,1.72,0,0,0,121,29.62a3.33,3.33,0,0,0-1.47.07,4.45,4.45,0,0,0-1.38.72,5.08,5.08,0,0,0-1.74,2.78,4.83,4.83,0,0,0,.43,3.32,5.87,5.87,0,0,0,2.41,2.5,6.25,6.25,0,0,0,3.31.78,7.64,7.64,0,0,0,3.26-.9,5.78,5.78,0,0,0,1.3-.91,2.23,2.23,0,0,0,.66-1.08.94.94,0,0,0-.27-.86,2,2,0,0,0-1.08-.48,2.85,2.85,0,0,0-1.27.11,4.26,4.26,0,0,0-1.18.65,4.92,4.92,0,0,0-1.8,4.56,6.32,6.32,0,0,0,2.13,3.78,7.54,7.54,0,0,0,3.07,1.53C129.29,46.63,130.43,46.41,130.44,46.57Z"/><path class="cls-6" d="M503.84,274.68c0,.1-112.8.18-251.91.18S0,274.78,0,274.68s112.77-.19,251.93-.19S503.84,274.58,503.84,274.68Z"/><path class="cls-7" d="M356,75.23h0c1.5-2.17,2.32-3.79,3.37-5.15,1.3-1.68,1.72-2.46,1.39-2.69s-.26-.2-3.06,2.52c0,0,4-3.92,2.44-3.74-.67.07-4,3.29-4,3.29,2.91-2.34,3.63-3.68,3.26-4.1-.55-.61-4.55,3.33-4.55,3.33a42.33,42.33,0,0,0,3.49-3.63c.39-.69-.55-.52-1.28-.16s-5.26,3.44-6.59,4.24a.92.92,0,0,1-1.37-.27,5.78,5.78,0,0,0-3.17-3.44c-.62-.11-1,.72-.48,1.22a8.68,8.68,0,0,1,1.19,1.95,5.34,5.34,0,0,1,.5,1.74c.08.71.12,1.31.14,1.82l-2,11.24,7.08,5Z"/><path class="cls-8" d="M356,71.58a10.53,10.53,0,0,0,2-1.78,9.91,9.91,0,0,0,1.74-2,10.19,10.19,0,0,0-2,1.78A10.1,10.1,0,0,0,356,71.58Z"/><path class="cls-8" d="M354.86,70.62a11.64,11.64,0,0,0,2.23-1.78,11.67,11.67,0,0,0,2-2,11.86,11.86,0,0,0-2.24,1.78A11.38,11.38,0,0,0,354.86,70.62Z"/><path class="cls-8" d="M353.66,69.61A10.59,10.59,0,0,0,355.81,68a9.91,9.91,0,0,0,1.9-1.92,11,11,0,0,0-2.14,1.65A10.5,10.5,0,0,0,353.66,69.61Z"/><path class="cls-7" d="M307.32,40.63a10.43,10.43,0,0,1,11.22,9.76c.29,4.84.56,10.08.52,12.72-.07,5.66-5.73,6.54-5.73,6.54s.81,9.84.73,11.43l-15,.68-1.35-30.27a10.42,10.42,0,0,1,9.6-10.86Z"/><path class="cls-8" d="M313.34,69.57a13.16,13.16,0,0,1-7.38-2.1s1.74,4.08,7.39,3.57Z"/><path class="cls-7" d="M298.24,53.44c-.1,0-3.89-1.15-3.77,2.72s4,3,4,2.84S298.24,53.44,298.24,53.44Z"/><path class="cls-8" d="M297.23,57.57s-.07,0-.18.1a.64.64,0,0,1-.5,0,1.65,1.65,0,0,1-.82-1.47,2.33,2.33,0,0,1,.15-1,.8.8,0,0,1,.5-.54.34.34,0,0,1,.4.18c.05.1,0,.18.05.19s.08-.07.05-.23a.44.44,0,0,0-.16-.24.54.54,0,0,0-.38-.09,1,1,0,0,0-.68.63,2.13,2.13,0,0,0-.2,1.08,1.75,1.75,0,0,0,1,1.64.7.7,0,0,0,.62-.12C297.22,57.66,297.24,57.58,297.23,57.57Z"/><path class="cls-6" d="M317.1,54a.81.81,0,0,1-.78.82.77.77,0,0,1-.83-.73.81.81,0,0,1,.78-.82A.78.78,0,0,1,317.1,54Z"/><path class="cls-6" d="M317.08,52.41c-.1.1-.71-.35-1.58-.35s-1.51.44-1.61.33.06-.23.34-.44a2.23,2.23,0,0,1,1.28-.39,2.07,2.07,0,0,1,1.26.41C317,52.17,317.13,52.36,317.08,52.41Z"/><path class="cls-6" d="M308.55,54a.82.82,0,0,1-.78.82.77.77,0,0,1-.83-.73.81.81,0,0,1,.77-.82A.79.79,0,0,1,308.55,54Z"/><path class="cls-6" d="M308.53,52.57c-.1.11-.72-.35-1.59-.34s-1.5.43-1.6.33.06-.24.34-.44a2.23,2.23,0,0,1,1.28-.4,2.07,2.07,0,0,1,1.26.41C308.49,52.33,308.58,52.52,308.53,52.57Z"/><path class="cls-6" d="M311.68,59a5.9,5.9,0,0,1,1.42-.25c.22,0,.43-.07.47-.22a1.14,1.14,0,0,0-.15-.66l-.66-1.69a28.45,28.45,0,0,1-1.47-4.43,31.55,31.55,0,0,1,1.83,4.3c.21.6.43,1.16.62,1.7a1.3,1.3,0,0,1,.12.88.56.56,0,0,1-.37.32,1.3,1.3,0,0,1-.37.05A5.52,5.52,0,0,1,311.68,59Z"/><path class="cls-6" d="M309.12,59.63c.15,0,.15.93,1,1.6s1.81.57,1.82.7-.23.18-.65.2a2.36,2.36,0,0,1-1.52-.53,2,2,0,0,1-.74-1.35C309,59.85,309.06,59.62,309.12,59.63Z"/><path class="cls-6" d="M308.75,49.16c-.08.24-.95.13-2,.25s-1.85.4-2,.19.09-.33.42-.55a3.45,3.45,0,0,1,3-.34C308.6,48.86,308.79,49.05,308.75,49.16Z"/><path class="cls-6" d="M316.76,49.89c-.15.2-.75,0-1.47,0s-1.33.14-1.47-.07,0-.3.3-.49a2.13,2.13,0,0,1,2.37.08C316.74,49.59,316.83,49.79,316.76,49.89Z"/><path class="cls-6" d="M297.86,53.34a5.89,5.89,0,0,0,0,1.78,2,2,0,0,0,1,1.41,2.1,2.1,0,0,0,2.63-1.25,6.59,6.59,0,0,0,.21-3.22,16,16,0,0,1,.07-4.43,6.38,6.38,0,0,1,2.13-3.8,4,4,0,0,1,4.17-.6,24.5,24.5,0,0,1,2.2,1.63,3.44,3.44,0,0,0,2.34.59,2.19,2.19,0,0,0,1.79-1.5,2.37,2.37,0,0,0-.91-2.37,5.47,5.47,0,0,0-2.47-1,13.23,13.23,0,0,0-7.35.57,9.58,9.58,0,0,0-5.33,5c-1.13,2.65-.37,4.75-.53,7.69"/><path class="cls-2" d="M355.39,78.48l-9.27-2.24L340,92.83,323.12,77.71h0c-1.79-1.31-4.89-1.48-7.25-1.77l-.18,0c-.91-.11-1.36-.24-1.91-.31-4.07,3.07-11,3.26-15,.1,0,0-3,.69-4.84,1-5.7,1.09-9.81,5.24-10.95,9.08l7.14,16.46,1.37,15.64-3.95,14a2.43,2.43,0,0,0,2,3.07l35.36.54.58-.29a6.52,6.52,0,0,0,.95-4.48c-1.53-6.7-.46-26.69-.78-32.82,6.94,6.74,14.59,12.33,20.18,8.87C350.48,104,355.39,78.48,355.39,78.48Z"/><polygon class="cls-9" points="299.01 75.32 299.01 75.32 299.01 75.32 299.01 75.32"/><polygon class="cls-2" points="297.6 76.74 298.42 71.08 306.13 73.91 308.3 77.74 309.65 73.54 313.88 72.08 315.69 75.84 312.59 80.23 306.77 81.41 297.6 76.74"/><path class="cls-6" d="M308.44,78.62a1.28,1.28,0,0,1-.29-.23c-.17-.17-.42-.42-.71-.77a11.32,11.32,0,0,1-1.86-3.2h.29c-.53,1.33-1.14,2.86-1.78,4.49-.31.77-.62,1.51-.9,2.22l-.09.23-.18-.18c-1.56-1.5-2.9-2.82-3.85-3.76L298,76.29a3,3,0,0,1-.37-.43,2.1,2.1,0,0,1,.45.35l1.17,1.05c1,.91,2.36,2.19,3.93,3.68l-.27.06c.28-.71.58-1.45.88-2.22.66-1.62,1.29-3.15,1.82-4.47l.15-.37.14.37a12.63,12.63,0,0,0,1.71,3.2C308.11,78.23,308.47,78.59,308.44,78.62Z"/><path class="cls-6" d="M315.69,75.84a5.8,5.8,0,0,1-.9,1.25,12.56,12.56,0,0,1-3,2.59l-.17.11-.07-.19c-.26-.69-.55-1.43-.86-2.2-.46-1.16-.89-2.25-1.23-3.23l.3,0c-.26,1.28-.57,2.32-.76,3.06a7,7,0,0,1-.34,1.16,4.75,4.75,0,0,1,.16-1.2c.14-.76.41-1.81.63-3.08l.1-.56.2.54c.36,1,.8,2,1.27,3.2.31.77.59,1.52.84,2.21l-.24-.08a13.69,13.69,0,0,0,3-2.45A14.76,14.76,0,0,1,315.69,75.84Z"/><path class="cls-6" d="M311.23,136.24s0-.2,0-.59.11-1,.18-1.68.15-1.63.23-2.67c0-.52.08-1.07.12-1.66s.05-1.22.07-1.88c.12-2.62.12-5.75.05-9.22s-.28-7.29-.55-11.29c-.58-8-1.37-15.23-2-20.46-.3-2.58-.54-4.69-.71-6.18-.07-.71-.14-1.27-.18-1.69a3.69,3.69,0,0,1,0-.59,4.1,4.1,0,0,1,.11.58l.25,1.68c.2,1.46.49,3.57.81,6.18.66,5.21,1.49,12.44,2.07,20.45.27,4,.45,7.83.52,11.31s0,6.62-.12,9.24c0,.66-.07,1.29-.1,1.88s-.1,1.15-.15,1.67c-.09,1-.17,1.94-.28,2.67s-.19,1.26-.25,1.67A2.45,2.45,0,0,1,311.23,136.24Z"/><path class="cls-6" d="M339.82,99.22a15.76,15.76,0,0,1-.18-3.36,15.83,15.83,0,0,1,.18-3.36,17.15,17.15,0,0,1,.17,3.36A17.07,17.07,0,0,1,339.82,99.22Z"/><path class="cls-6" d="M342.18,99.65c0,.32-.47-.58-1.51-3.46a15.33,15.33,0,0,1-.94-3.66A30.83,30.83,0,0,1,341,96.08,32.92,32.92,0,0,1,342.18,99.65Z"/><path class="cls-10" d="M319.35,254.63l-.54,12.84s12.88,4.86,13,7.24l-24.94-.14,0-20Z"/><path class="cls-2" d="M311.11,266.35a1,1,0,0,0-.71,1.15,1,1,0,0,0,1.14.72,1.08,1.08,0,0,0,.75-1.23,1,1,0,0,0-1.27-.61"/><g class="cls-11"><path class="cls-3" d="M306.88,274.57l.08-2,23.88.89s1.11.49,1,1.27Z"/></g><path class="cls-6" d="M319.22,267.35c0,.12-.62.17-1.22.56s-.92.9-1,.85.07-.75.81-1.21S319.25,267.24,319.22,267.35Z"/><path class="cls-6" d="M321.83,268.44c0,.12-.5.33-.92.84s-.54,1.06-.66,1.05-.2-.7.33-1.32S321.83,268.33,321.83,268.44Z"/><path class="cls-6" d="M323.29,271.58c-.11,0-.27-.58,0-1.25s.89-.92.94-.82-.3.46-.55,1S323.42,271.57,323.29,271.58Z"/><path class="cls-6" d="M319,264.41c-.06.11-.61-.06-1.3,0s-1.23.26-1.29.15.46-.53,1.27-.57S319.08,264.31,319,264.41Z"/><path class="cls-6" d="M319.08,261.82a2.35,2.35,0,0,1-1.25,0,5.8,5.8,0,0,1-2-.79,1.6,1.6,0,0,1-.38-.3.54.54,0,0,1-.05-.65.67.67,0,0,1,.54-.27,1.27,1.27,0,0,1,.46.07,4.41,4.41,0,0,1,1.93,1c.57.54.77,1,.73,1s-.34-.34-.93-.79a4.77,4.77,0,0,0-1.11-.63,4.92,4.92,0,0,0-.71-.23c-.27-.07-.49-.07-.56,0s0,.07,0,.14a1,1,0,0,0,.27.22c.22.14.45.27.66.38a6.76,6.76,0,0,0,1.21.47A7.31,7.31,0,0,1,319.08,261.82Z"/><path class="cls-6" d="M318.92,262c-.05,0-.28-.42-.32-1.21a4,4,0,0,1,.17-1.36,4.17,4.17,0,0,1,.33-.76,1,1,0,0,1,.8-.63.62.62,0,0,1,.52.35,1.85,1.85,0,0,1,.12.46,2.63,2.63,0,0,1,0,.84A2.88,2.88,0,0,1,320,261c-.49.64-1,.79-1,.75s.38-.3.76-.92a2.88,2.88,0,0,0,.4-1.17,2.5,2.5,0,0,0,0-.72c0-.27-.13-.48-.23-.45s-.34.19-.44.4a4.17,4.17,0,0,0-.32.68,4.86,4.86,0,0,0-.25,1.24C318.86,261.51,319,262,318.92,262Z"/><path class="cls-10" d="M276.34,250.86l-4,16.07-6.87,11.79a1.7,1.7,0,0,0,.72,2.37h0a1.67,1.67,0,0,0,1.55,0c3.09-1.67,14.4-7.84,14.63-9,.27-1.38,5.4-16.66,5.4-16.66Z"/><g class="cls-11"><path class="cls-3" d="M266.14,281.09,282.62,271l-.19.67a2.54,2.54,0,0,1-1,1.44c-1.35.91-5.11,3.35-13.67,8a1.68,1.68,0,0,1-1.6,0Z"/></g><g class="cls-11"><path class="cls-3" d="M280.76,264.9a1,1,0,0,0-.62,1.21,1,1,0,0,0,1.2.64,1.09,1.09,0,0,0,.66-1.3,1,1,0,0,0-1.33-.52"/></g><path class="cls-6" d="M271.72,275.12a5.39,5.39,0,0,0-1.06-1.63,5.47,5.47,0,0,0-1.74-.86s.23-.11.62-.06a2.64,2.64,0,0,1,1.36.65,2.71,2.71,0,0,1,.81,1.28C271.8,274.88,271.76,275.12,271.72,275.12Z"/><path class="cls-6" d="M270,277c-.1,0-.47-.62-1.23-1.08a12.54,12.54,0,0,0-1.5-.63,1.87,1.87,0,0,1,1.7.32C269.82,276.1,270.08,276.93,270,277Z"/><path class="cls-6" d="M274.59,273a8.63,8.63,0,0,0-4-3,4.62,4.62,0,0,1,4,3Z"/><path class="cls-6" d="M276.23,268.18c-.07.09-.85-.52-2-.88s-2.13-.34-2.13-.45a4.22,4.22,0,0,1,4.11,1.33Z"/><path class="cls-6" d="M277.54,263.5a8.13,8.13,0,0,0-2-1,8.66,8.66,0,0,0-2.27-.06s.22-.19.64-.3a3.76,3.76,0,0,1,1.71,0,3.6,3.6,0,0,1,1.53.78C277.44,263.23,277.57,263.47,277.54,263.5Z"/><path class="cls-6" d="M275.77,261.63a1.57,1.57,0,0,1,.15-.61,4.39,4.39,0,0,1,.92-1.45,1.93,1.93,0,0,1,1-.67.69.69,0,0,1,.7.36,1.08,1.08,0,0,1,.05.79,2.4,2.4,0,0,1-2.62,1.58,2.77,2.77,0,0,1-2.24-2.14.93.93,0,0,1,.17-.78.67.67,0,0,1,.77-.16,2.54,2.54,0,0,1,.9.84,4.75,4.75,0,0,1,.74,1.54,1.54,1.54,0,0,1,.1.62,8,8,0,0,0-1.05-2,2.09,2.09,0,0,0-.8-.71.34.34,0,0,0-.42.08.63.63,0,0,0-.08.52,2.49,2.49,0,0,0,2,1.83,2.09,2.09,0,0,0,2.24-1.31.82.82,0,0,0,0-.56.4.4,0,0,0-.39-.2,1.78,1.78,0,0,0-.89.55A6.65,6.65,0,0,0,275.77,261.63Z"/><polygon class="cls-12" points="305.06 76.48 306.8 77.4 306.48 80.35 303.75 79.77 305.06 76.48"/><g class="cls-13"><polygon points="305.06 76.48 306.8 77.4 306.48 80.35 303.75 79.77 305.06 76.48"/></g><polygon class="cls-14" points="309.07 77.22 310.39 76.05 311.6 79.13 309.87 79.97 309.07 77.22"/><polygon class="cls-15" points="307.13 81.06 306.31 115.91 312.2 121.73 315.05 114 309.4 80.88 307.13 81.06"/><path class="cls-16" d="M307.17,76.32c.4,0,.95-.16,1.39-.25a1,1,0,0,1,1.05.49l.75,1.37a1,1,0,0,1,.1.64l-.3,1.54a1,1,0,0,1-.76.77l-1.68.34a1,1,0,0,1-1.06-.51l-.84-1.66a1,1,0,0,1,0-.83l.58-1.33A1,1,0,0,1,307.17,76.32Z"/><path class="cls-6" d="M309.62,76.69a4.09,4.09,0,0,1-.45.56L308,78.53c-.46.49-.88.93-1.19,1.24a3.18,3.18,0,0,1-.52.5,3.48,3.48,0,0,1,.45-.56l1.15-1.28c.46-.49.88-.94,1.19-1.25A2.83,2.83,0,0,1,309.62,76.69Z"/><path class="cls-6" d="M307.89,78.3a4.63,4.63,0,0,1-.81-.69,3.71,3.71,0,0,1-.71-.78,4.3,4.3,0,0,1,.81.68A3.89,3.89,0,0,1,307.89,78.3Z"/><path class="cls-6" d="M309.86,80.53a18.63,18.63,0,0,1,.42-2,2,2,0,0,0-.42-1.31,1.34,1.34,0,0,1-.21-.58s.09.22.29.53a4.31,4.31,0,0,1,.34.56,1.31,1.31,0,0,1,.14.82c-.12.57-.27,1-.36,1.41A3.1,3.1,0,0,1,309.86,80.53Z"/><path class="cls-6" d="M324.9,135.47,322.43,263.4a1.57,1.57,0,0,1-1.58,1.54l-14.9-.13a1.57,1.57,0,0,1-1.56-1.61l2.31-110.11-19.38,109.3a2.82,2.82,0,0,1-2.87,2.32l-12.5-.43a2.82,2.82,0,0,1-2.68-3.25L288.9,134.94Z"/><path class="cls-17" d="M278,257.94s0-.11,0-.31l.13-.88c.13-.79.31-1.92.55-3.37L280.8,241c1.75-10.49,4.16-25,6.82-41s5-30.5,6.64-41c.82-5.24,1.48-9.48,1.94-12.44.23-1.45.41-2.59.53-3.38.07-.37.11-.66.15-.87a2.4,2.4,0,0,1,.06-.3,2.28,2.28,0,0,1,0,.3c0,.21-.06.51-.11.88-.11.79-.27,1.93-.47,3.39-.4,3-1,7.2-1.83,12.45-1.59,10.51-3.89,25-6.54,41S282.86,230.53,281,241c-.92,5.23-1.66,9.46-2.18,12.4-.26,1.45-.47,2.58-.61,3.37-.07.37-.13.66-.17.87S278,257.94,278,257.94Z"/><path class="cls-17" d="M316.2,258.4c-.09,0,.08-26,.38-58.14s.63-58.14.72-58.14-.07,26-.37,58.15S316.3,258.4,316.2,258.4Z"/><path class="cls-17" d="M322.89,258.85c0,.1-4.07.18-9.08.18s-9.07-.08-9.07-.18,4.06-.17,9.07-.17S322.89,258.76,322.89,258.85Z"/><path class="cls-17" d="M288.21,258.16a3.09,3.09,0,0,1-.73.07l-2,.07-6.55.15c-2.56.06-4.88.08-6.56.06-.83,0-1.51,0-2,0a2.54,2.54,0,0,1-.73-.07,4,4,0,0,1,.73-.07l2-.06,6.55-.16c2.56-.06,4.88-.08,6.55-.06.84,0,1.52,0,2,0A2.54,2.54,0,0,1,288.21,258.16Z"/><path class="cls-17" d="M309.3,137a12.94,12.94,0,0,1-.05,2.21c-.07,1.37-.2,3.25-.37,5.32-.09,1-.15,2-.28,2.94a5.63,5.63,0,0,1-.79,2.31,3.14,3.14,0,0,1-1.21,1.12,1,1,0,0,1-.58.17,3.63,3.63,0,0,0,1.57-1.43,5.81,5.81,0,0,0,.68-2.22c.1-.88.15-1.88.24-2.91.17-2.08.34-4,.48-5.32A14,14,0,0,1,309.3,137Z"/><g class="cls-18"><path d="M290.07,124.78a6.63,6.63,0,0,0,5.81,1.67c1.47-.29,2.86-1.09,4.35-1s3,1.25,4.47,1.92c2.78,1.26,6,.86,9,.07a5.22,5.22,0,0,0,4.78-5,31.72,31.72,0,0,0,.44-6,5.8,5.8,0,0,0-1-3.59,4.16,4.16,0,0,0-2.69-1.35,10.29,10.29,0,0,0-3.08.17,50.7,50.7,0,0,0-22.24,9.54"/></g><path class="cls-2" d="M304.41,118.14s-18.71,8.37-20.62,8.79c-6.31,1.39-13.54-4.58-11.53-11.38C273,113,283.07,85,283.07,85l9.59,13.25-4.06,13.55,10.62-.71Z"/><path class="cls-6" d="M298.35,111.23a3.52,3.52,0,0,1-.74.11l-2,.17c-1.75.13-4.18.3-7,.48h-.23l.07-.22.62-2.1c.95-3.16,1.82-6,2.47-8.08.32-1,.58-1.81.79-2.44a4.69,4.69,0,0,1,.33-.88,6.33,6.33,0,0,1-.21.91l-.68,2.47c-.6,2.09-1.43,5-2.38,8.12l-.63,2.09-.17-.21c2.78-.16,5.22-.29,7-.36l2.06-.08A3.83,3.83,0,0,1,298.35,111.23Z"/><path class="cls-6" d="M302.32,119.24c0,.08-4.07,1.85-9.17,4s-9.27,3.74-9.31,3.65,4.08-1.86,9.18-4S302.29,119.15,302.32,119.24Z"/><path class="cls-17" d="M300.06,110.61l-1.48-7.18a.92.92,0,0,1,.91-1.11l18.6.08a.92.92,0,0,1,.91,1l-1.92,16.47A1.27,1.27,0,0,1,315.8,121l-12.13-.09a1.28,1.28,0,0,1-1.23-1Z"/><path class="cls-7" d="M298.42,106.83h0a2,2,0,0,1,1.83,1.25,4.23,4.23,0,0,0,1.24,2,4.48,4.48,0,0,0,3.32.49c.83-.41,4.15-3.4,4.73-3.07s1.08,1.08.5,1.75-3.65,2.65-3.07,3.32,7.06-2.26,8-2,1.58.87,1,1.27-5,2.06-5.23,2.64c0,0,6.64-1.75,6.89-1.33s.67,1.08,0,1.33-6.39,1.74-6.89,2a12,12,0,0,1-2.56.75,27.92,27.92,0,0,0-2.68.84,5.82,5.82,0,0,1-4.13-.11l-.67-.27a2.66,2.66,0,0,1-1.64-2.6l.14-2.26-.72-1.87Z"/><path class="cls-4" d="M309.58,105.09a.68.68,0,1,1-.67-.68A.67.67,0,0,1,309.58,105.09Z"/><path class="cls-17" d="M389.58,163.25H333.85v-2.08h53.66a2.08,2.08,0,0,1,2.07,2.08Z"/><rect class="cls-17" x="333.85" y="130.51" width="42.7" height="32.3" rx="2.36"/><rect class="cls-4" x="335.63" y="132.04" width="39.14" height="28.76"/><path class="cls-6" d="M374.77,160.8s0-.18,0-.53v-1.53c0-1.35,0-3.32,0-5.83,0-5,0-12.21,0-20.87l0,0H335.63l.06-.05c0,10.45,0,20.29,0,28.76l-.05,0,28.31,0h8l-8,0-28.34,0h-.05v0c0-8.47,0-18.31,0-28.76v0h39.24v0c0,8.67,0,15.86,0,20.89,0,2.51,0,4.48,0,5.82,0,.67,0,1.19,0,1.53Z"/><path class="cls-2" d="M368.91,139.78h-2.06l-5.68,0H341.88l.05-.05v13.28l-.05,0H361l5.63,0H361l-19.16,0h-.05V139.74h19.34l5.68,0h2.06Z"/><path class="cls-2" d="M368.91,142s-6.05,0-13.51,0-13.52,0-13.52,0,6.05-.05,13.52-.05S368.91,142,368.91,142Z"/><path class="cls-2" d="M368.71,143.8s-6,0-13.51,0-13.52,0-13.52,0,6.05-.05,13.52-.05S368.71,143.77,368.71,143.8Z"/><path class="cls-2" d="M368.91,145.68s-6.05,0-13.51,0-13.52,0-13.52,0,6.05-.05,13.52-.05S368.91,145.65,368.91,145.68Z"/><path class="cls-2" d="M368.91,147.51s-6.05.05-13.51.05-13.52,0-13.52-.05,6.05,0,13.52,0S368.91,147.48,368.91,147.51Z"/><path class="cls-2" d="M368.91,149.34s-6.05,0-13.51,0-13.52,0-13.52,0,6.05-.05,13.52-.05S368.91,149.31,368.91,149.34Z"/><path class="cls-2" d="M341.88,151.17s6.05,0,13.51,0,13.52,0,13.52,0-6.05,0-13.52,0S341.88,151.19,341.88,151.17Z"/><path class="cls-2" d="M347.23,153.27s-.05-3-.05-6.74,0-6.75.05-6.75,0,3,0,6.75S347.26,153.27,347.23,153.27Z"/><path class="cls-2" d="M352.65,153.27s0-3,0-6.74,0-6.75,0-6.75.05,3,.05,6.75S352.68,153.27,352.65,153.27Z"/><path class="cls-2" d="M358.07,153.27s-.05-3-.05-6.74,0-6.75.05-6.75.05,3,.05,6.75S358.1,153.27,358.07,153.27Z"/><path class="cls-2" d="M363.49,153.27s-.05-3-.05-6.74,0-6.75.05-6.75.05,3,.05,6.75S363.52,153.27,363.49,153.27Z"/><path class="cls-2" d="M368.91,153.27s-.05-3-.05-6.74,0-6.75.05-6.75,0,3,0,6.75S368.94,153.27,368.91,153.27Z"/><path class="cls-9" d="M368.91,142l-.2.16-.61.43-2.27,1.56c-1.93,1.33-4.63,3.17-7.71,5.25l0,0h0l-2.3-.78-3.12-1.05h.08l-5.43,3.64h0l-3.92,1.35-1.08.36L342,153l-.1,0,.09,0,.28-.11,1.06-.4,3.9-1.41h0l5.41-3.67,0,0,0,0,3.12,1.05,2.3.78H358c3.07-2.07,5.79-3.89,7.74-5.19l2.3-1.52.63-.4Z"/><circle class="cls-9" cx="347.23" cy="151.17" r="0.33"/><circle class="cls-9" cx="352.65" cy="147.51" r="0.33"/><circle class="cls-9" cx="358.07" cy="149.3" r="0.33"/><circle class="cls-9" cx="363.55" cy="145.69" r="0.33"/><path class="cls-17" d="M368.91,151.17l-.1-.06-.29-.18-1.1-.71-4-2.62h.08l-5.41,3.64-.07,0-.05-.07c-.9-1.2-1.86-2.5-2.85-3.84l-2.57-3.48h.14l-5.44,5.48h0l-4,1.31-1.1.35-.29.08-.1,0,.09,0,.28-.1,1.09-.38,4-1.37,0,0,5.41-5.51.07-.07.07.08,2.57,3.47c1,1.35,1.95,2.64,2.85,3.85l-.13,0,5.43-3.61,0,0,0,0,3.94,2.67,1.07.74.28.2Z"/><circle class="cls-17" cx="352.65" cy="143.85" r="0.33"/><circle class="cls-17" cx="347.23" cy="149.34" r="0.33"/><circle class="cls-17" cx="358.07" cy="151.17" r="0.33"/><circle class="cls-17" cx="363.49" cy="147.84" r="0.33"/><path class="cls-2" d="M345,154.58a2.73,2.73,0,0,1-1,0,2.73,2.73,0,0,1,1,0Z"/><path class="cls-2" d="M350.51,154.58a1.65,1.65,0,0,1-.52,0,1.6,1.6,0,0,1-.52,0,1.33,1.33,0,0,1,.52-.05A1.37,1.37,0,0,1,350.51,154.58Z"/><path class="cls-2" d="M356.05,154.58a1.65,1.65,0,0,1-.52,0,1.69,1.69,0,0,1-.53,0,1.4,1.4,0,0,1,.53-.05A1.37,1.37,0,0,1,356.05,154.58Z"/><path class="cls-2" d="M361.59,154.58a1.69,1.69,0,0,1-.53,0,1.65,1.65,0,0,1-.52,0,1.37,1.37,0,0,1,.52-.05A1.4,1.4,0,0,1,361.59,154.58Z"/><path class="cls-2" d="M367.13,154.58a1.69,1.69,0,0,1-.53,0,1.65,1.65,0,0,1-.52,0,1.37,1.37,0,0,1,.52-.05A1.4,1.4,0,0,1,367.13,154.58Z"/><path class="cls-2" d="M341.12,153s-.19,0-.43,0-.42,0-.42,0,.19-.05.42-.05S341.12,153,341.12,153Z"/><path class="cls-2" d="M341.12,150.86s-.19,0-.43,0-.42,0-.42,0a1.08,1.08,0,0,1,.42-.05A1.11,1.11,0,0,1,341.12,150.86Z"/><path class="cls-2" d="M341.12,148.73s-.19.05-.43.05-.42,0-.42-.05a1.2,1.2,0,0,1,.42,0A1.24,1.24,0,0,1,341.12,148.73Z"/><path class="cls-2" d="M341.12,146.61a1.11,1.11,0,0,1-.43,0,1.08,1.08,0,0,1-.42,0s.19-.05.42-.05S341.12,146.58,341.12,146.61Z"/><path class="cls-2" d="M341.12,144.48s-.19.05-.43.05-.42,0-.42-.05.19,0,.42,0S341.12,144.45,341.12,144.48Z"/><path class="cls-2" d="M341.12,142.35s-.19.05-.43.05-.42,0-.42-.05a1.08,1.08,0,0,1,.42,0A1.11,1.11,0,0,1,341.12,142.35Z"/><path class="cls-2" d="M341.12,140.23a1.24,1.24,0,0,1-.43,0,1.2,1.2,0,0,1-.42,0s.19,0,.42,0S341.12,140.2,341.12,140.23Z"/><rect class="cls-9" x="341.74" y="135.18" width="7.77" height="0.55"/><path class="cls-6" d="M363.37,136.79s-4.85.05-10.84.05-10.84,0-10.84-.05,4.85,0,10.84,0S363.37,136.77,363.37,136.79Z"/><path class="cls-6" d="M355.45,157.23s-3,.05-6.61.05-6.62,0-6.62-.05,3,0,6.62,0S355.45,157.21,355.45,157.23Z"/><path class="cls-6" d="M345.4,158.23a19.91,19.91,0,0,1-2.82,0,19.91,19.91,0,0,1,2.82,0Z"/><path class="cls-6" d="M367.44,157.06s-2.11,0-4.71,0-4.7,0-4.7,0,2.11-.05,4.7-.05S367.44,157,367.44,157.06Z"/><path class="cls-6" d="M362.32,157.7a10.31,10.31,0,0,1-1.47.05,10.42,10.42,0,0,1-1.47-.05,12.61,12.61,0,0,1,1.47,0A12.45,12.45,0,0,1,362.32,157.7Z"/><polygon class="cls-6" points="131.32 274.68 143 171.4 152.9 174.89 136.72 274.68 131.32 274.68"/><rect class="cls-17" x="126.34" y="163.13" width="298.75" height="13.06"/><path class="cls-6" d="M189.63,163.32l-.1.14c-.07.09-.17.23-.31.39a6.33,6.33,0,0,1-1.5,1.21,8.81,8.81,0,0,1-2.89,1,20.51,20.51,0,0,1-4,.17,39.29,39.29,0,0,1-4.85-.56,42.18,42.18,0,0,0-5.52-.65,34.28,34.28,0,0,0-12.42,2.4c-4.26,1.53-8.25,3.26-12.06,4.32a33.28,33.28,0,0,1-5.49,1.09,23.43,23.43,0,0,1-4.89,0,16.73,16.73,0,0,1-6.7-2.15,10.2,10.2,0,0,1-2.07-1.55l.15.1.39.29a12.83,12.83,0,0,0,1.6,1,17.12,17.12,0,0,0,6.66,2,23.64,23.64,0,0,0,4.82,0,32.86,32.86,0,0,0,5.44-1.11c3.78-1.06,7.74-2.8,12-4.33a34.16,34.16,0,0,1,12.55-2.4,43.3,43.3,0,0,1,5.56.69,37.55,37.55,0,0,0,4.81.6,20.34,20.34,0,0,0,4-.12,8.55,8.55,0,0,0,2.85-.89A7.81,7.81,0,0,0,189.63,163.32Z"/><path class="cls-6" d="M157,163.52a8.52,8.52,0,0,1-.91.77,20.64,20.64,0,0,1-2.72,1.76A23.28,23.28,0,0,1,143,168.77a22.31,22.31,0,0,1-10.41-2.15,6.51,6.51,0,0,1-2.51-2.05,3.53,3.53,0,0,1-.41-.79.87.87,0,0,1-.08-.3,7.59,7.59,0,0,0,.6,1,6.77,6.77,0,0,0,2.52,1.91,23,23,0,0,0,10.28,2,24.24,24.24,0,0,0,5.75-.87,24.86,24.86,0,0,0,4.43-1.72,26.4,26.4,0,0,0,2.76-1.64A6.55,6.55,0,0,1,157,163.52Z"/><path class="cls-6" d="M227.05,171.8a3.36,3.36,0,0,1,.46.17,9.65,9.65,0,0,0,1.38.36,8.09,8.09,0,0,0,5.23-.82l0,.17a12.43,12.43,0,0,0-6.48-2.52,12.56,12.56,0,0,0-8.43,2.19,1.34,1.34,0,0,0-.66.84.94.94,0,0,0,.56.85,4,4,0,0,0,1.16.4l1.27.29c1.71.38,3.48.76,5.31,1a30.79,30.79,0,0,0,5.64.38,20.19,20.19,0,0,0,2.89-.28,14.34,14.34,0,0,0,1.45-.3,6.84,6.84,0,0,0,1.39-.45A4.62,4.62,0,0,0,240,172.8a2.06,2.06,0,0,0,.35-2,3.47,3.47,0,0,0-1.42-1.59,11.82,11.82,0,0,0-2-1,27.22,27.22,0,0,0-8.29-1.72,34.4,34.4,0,0,0-14.17,2.19,35.08,35.08,0,0,0-8.53,4.66c-.91.71-1.61,1.26-2.06,1.67l-.52.45c-.12.1-.19.15-.19.14l.16-.17c.13-.12.3-.27.5-.47.44-.43,1.13-1,2-1.73a33.88,33.88,0,0,1,8.52-4.79,34.26,34.26,0,0,1,14.28-2.29,27.26,27.26,0,0,1,8.41,1.73,11.69,11.69,0,0,1,2,1,3.85,3.85,0,0,1,1.56,1.77,2.43,2.43,0,0,1-.4,2.36,5.07,5.07,0,0,1-2,1.42,8.56,8.56,0,0,1-1.46.47c-.48.13-1,.22-1.47.31a20.89,20.89,0,0,1-2.94.28,32.48,32.48,0,0,1-5.71-.4c-1.84-.27-3.61-.66-5.32-1.05l-1.27-.29a4,4,0,0,1-1.25-.45,1.55,1.55,0,0,1-.53-.46,1,1,0,0,1-.19-.7,1.61,1.61,0,0,1,.79-1.07,12.8,12.8,0,0,1,8.65-2.2,12.66,12.66,0,0,1,6.58,2.63l.12.1-.14.07a8.13,8.13,0,0,1-5.34.75A6.07,6.07,0,0,1,227.05,171.8Z"/><path class="cls-6" d="M265.49,163.66a1.87,1.87,0,0,1,.3.66,5,5,0,0,1,.19,2,9.67,9.67,0,0,1-2.91,5.7,14.34,14.34,0,0,1-2.72,2.31,11.75,11.75,0,0,1-2.62,1.27,11.89,11.89,0,0,1-1.9.48,3.15,3.15,0,0,1-.71.06c0-.07,1-.21,2.52-.78a13.08,13.08,0,0,0,2.53-1.31,15.16,15.16,0,0,0,2.63-2.28,9.82,9.82,0,0,0,2.92-5.48A7.17,7.17,0,0,0,265.49,163.66Z"/><path class="cls-6" d="M319.14,175.5a17.76,17.76,0,0,0-1.37-1.33,9.83,9.83,0,0,0-4.67-2.11,10.53,10.53,0,0,0-3.56.11,15.46,15.46,0,0,1-4.17.38,8.33,8.33,0,0,1-4.15-2,14.2,14.2,0,0,0-4.17-2.47,15.24,15.24,0,0,0-9.27-.14,21.86,21.86,0,0,0-6.85,3.47,36.67,36.67,0,0,0-4,3.39l-1,1a2.65,2.65,0,0,1-.36.34,2,2,0,0,1,.31-.39c.21-.25.54-.6,1-1.05a32.62,32.62,0,0,1,3.92-3.5,21.74,21.74,0,0,1,6.91-3.59,15.53,15.53,0,0,1,9.48.12,14.56,14.56,0,0,1,4.27,2.54,8,8,0,0,0,4,2,14.79,14.79,0,0,0,4.08-.35,10.7,10.7,0,0,1,3.65-.05,9.52,9.52,0,0,1,4.72,2.25A6.31,6.31,0,0,1,319.14,175.5Z"/><path class="cls-6" d="M367,163.25a2.81,2.81,0,0,1-.33.45,14.63,14.63,0,0,1-1,1.21,27.62,27.62,0,0,1-4.36,3.88,34.94,34.94,0,0,1-7.57,4.19,30.3,30.3,0,0,1-4.88,1.56,25.4,25.4,0,0,1-5.45.7,27.18,27.18,0,0,1-10.36-2.15,34.76,34.76,0,0,1-7.53-4.27,29.62,29.62,0,0,1-4.33-3.91c-.48-.5-.79-.94-1-1.21a2.81,2.81,0,0,1-.33-.45,3.34,3.34,0,0,1,.39.4c.25.26.57.68,1.07,1.16a31.62,31.62,0,0,0,4.38,3.8,35,35,0,0,0,7.5,4.16,26.84,26.84,0,0,0,10.22,2.1,24.83,24.83,0,0,0,5.38-.68,31.14,31.14,0,0,0,4.84-1.52,36,36,0,0,0,7.54-4.09,30.38,30.38,0,0,0,4.41-3.77c.49-.47.81-.9,1.07-1.16A3,3,0,0,1,367,163.25Z"/><path class="cls-6" d="M360.2,163.13a1.23,1.23,0,0,1-.26.2c-.17.13-.43.31-.77.53a32.89,32.89,0,0,1-3,1.69,32.26,32.26,0,0,1-4.73,1.93,20.85,20.85,0,0,1-6.17,1.05,25.36,25.36,0,0,1-10.95-2.77,23.05,23.05,0,0,1-3-1.74c-.34-.22-.58-.42-.75-.55s-.26-.21-.25-.22.39.23,1.08.65a29.55,29.55,0,0,0,3,1.63,26.24,26.24,0,0,0,10.84,2.63,21.07,21.07,0,0,0,6.07-1,34.73,34.73,0,0,0,4.71-1.83c1.31-.62,2.33-1.18,3-1.59A8.13,8.13,0,0,1,360.2,163.13Z"/><path class="cls-6" d="M390.57,164.47h-.34l-1-.06-.71-.06h-.84c-.6,0-1.29,0-2.05,0l-1.18.06-1.29.15c-.89.08-1.82.29-2.81.46a40.93,40.93,0,0,0-6.24,1.86,43.08,43.08,0,0,0-5.85,2.88c-.84.54-1.67,1-2.38,1.56l-1,.75-.93.75c-.6.47-1.1.94-1.54,1.35l-.63.56-.49.51-.69.7c-.16.15-.25.23-.26.22s.06-.1.2-.27l.65-.75.47-.53.61-.59a20,20,0,0,1,1.52-1.4l.92-.77,1-.78c.71-.55,1.54-1,2.38-1.6a40.92,40.92,0,0,1,5.89-2.93,39.29,39.29,0,0,1,6.32-1.86c1-.15,1.94-.35,2.84-.42l1.29-.13,1.21,0a17.33,17.33,0,0,1,2.06,0l.84,0,.71.08,1,.13C390.46,164.43,390.57,164.45,390.57,164.47Z"/><path class="cls-6" d="M403.37,161.91a.73.73,0,0,1,0,.24,5.61,5.61,0,0,1-.05.71,10.2,10.2,0,0,1-.7,2.5,14.6,14.6,0,0,1-5.58,6.41,28.87,28.87,0,0,1-7.85,3.35c-1.06.3-1.91.52-2.51.65a4.1,4.1,0,0,1-.93.18,5.28,5.28,0,0,1,.89-.31l2.47-.77a31.45,31.45,0,0,0,7.73-3.41,15.06,15.06,0,0,0,5.54-6.2A16.05,16.05,0,0,0,403.37,161.91Z"/><path class="cls-6" d="M324.51,175.24a13.74,13.74,0,0,0-1.65-2,15.13,15.13,0,0,0-6-3.37,33,33,0,0,0-4.69-1c-1.72-.28-3.56-.49-5.5-.82a46.84,46.84,0,0,1-6-1.5,38.22,38.22,0,0,0-6.37-1.53,26.35,26.35,0,0,0-12.39,1.71,45.58,45.58,0,0,0-5.05,2.26c-1.54.79-3,1.57-4.24,2.3-2.58,1.46-4.62,2.7-6,3.56l-1.63,1-.42.26-.15.07.13-.11.4-.28c.36-.25.9-.61,1.59-1.06,1.39-.89,3.42-2.17,6-3.65,1.28-.75,2.69-1.54,4.23-2.35a45.1,45.1,0,0,1,5.07-2.31,26.59,26.59,0,0,1,12.56-1.76,37.88,37.88,0,0,1,6.42,1.56,47.15,47.15,0,0,0,5.92,1.5c1.92.34,3.77.57,5.48.86a30.83,30.83,0,0,1,4.73,1.09,14.71,14.71,0,0,1,6,3.51A7.6,7.6,0,0,1,324.51,175.24Z"/><path class="cls-6" d="M257.22,163.32a3.14,3.14,0,0,1-.05.84,9.62,9.62,0,0,1-.58,2.2,12.74,12.74,0,0,1-4.59,5.88,31.13,31.13,0,0,1-6.81,3.13c-.91.3-1.65.52-2.17.65a3.42,3.42,0,0,1-.82.17,4.16,4.16,0,0,1,.78-.31l2.12-.76a35.06,35.06,0,0,0,6.7-3.19,13.06,13.06,0,0,0,4.55-5.67A18.58,18.58,0,0,0,257.22,163.32Z"/><path class="cls-6" d="M187.86,176.19a5.26,5.26,0,0,1,.73-.7c.48-.43,1.21-1,2.13-1.74a60.38,60.38,0,0,1,7.62-4.91c3.1-1.7,6-3.07,8.11-4l2.5-1.12a6.31,6.31,0,0,1,.94-.36,5.09,5.09,0,0,1-.88.49L206.56,165c-2.08,1-4.95,2.43-8.05,4.12a76.22,76.22,0,0,0-7.64,4.8c-.93.68-1.68,1.24-2.19,1.64A4.81,4.81,0,0,1,187.86,176.19Z"/><path class="cls-6" d="M201.94,163.86a19.17,19.17,0,0,0-1.93,0,13.47,13.47,0,0,0-5,1.52,44.86,44.86,0,0,0-6.48,4.34,33.6,33.6,0,0,1-3.9,2.53A22.06,22.06,0,0,1,180,174a43,43,0,0,1-9.54,1.15c-3,.09-5.61,0-7.84.12a38.22,38.22,0,0,0-5.23.51c-.61.11-1.09.21-1.41.28a3,3,0,0,1-.49.09A2.62,2.62,0,0,1,156,176c.32-.1.79-.21,1.4-.35a34,34,0,0,1,5.25-.63c2.23-.13,4.89-.09,7.83-.2a44.49,44.49,0,0,0,9.47-1.16,21.64,21.64,0,0,0,4.58-1.76,33.35,33.35,0,0,0,3.87-2.48,43.52,43.52,0,0,1,6.56-4.31,13.2,13.2,0,0,1,5.09-1.42,7.49,7.49,0,0,1,1.44.05A1.71,1.71,0,0,1,201.94,163.86Z"/><path class="cls-6" d="M388.26,163.08c0,.1-12.48.18-27.88.18s-27.89-.08-27.89-.18,12.48-.19,27.89-.19S388.26,163,388.26,163.08Z"/><rect class="cls-6" x="231.2" y="157.26" width="40.26" height="6.02"/><rect class="cls-2" x="231.2" y="158.65" width="10.64" height="3.24"/><rect class="cls-19" x="234.8" y="151.24" width="40.26" height="6.02"/><rect class="cls-2" x="247.75" y="152.69" width="27.3" height="3.01"/><rect class="cls-6" x="228.78" y="145.23" width="40.26" height="6.02" transform="translate(497.83 296.47) rotate(180)"/><rect class="cls-2" x="258.4" y="146.62" width="10.64" height="3.24" transform="translate(527.45 296.47) rotate(180)"/><path class="cls-10" d="M370.26,252.09l4.8,11.92s-10.5,8.89-9.83,11.18l23.45-8.48L382,247.83Z"/><path class="cls-2" d="M381.94,260.38a1,1,0,0,1,1.06.85,1,1,0,0,1-.84,1,1.06,1.06,0,0,1-1.11-.91c0-.5.5-1.07,1-1"/><g class="cls-11"><path class="cls-3" d="M388.68,266.71l-.76-1.88-22.2,8.83s-.88.83-.49,1.53Z"/></g><path class="cls-6" d="M374.64,264c0,.11.63,0,1.33.12s1.17.54,1.26.46-.32-.69-1.17-.87S374.57,263.94,374.64,264Z"/><path class="cls-6" d="M372.55,265.94c0,.12.58.13,1.14.48s.86.81,1,.77-.05-.72-.75-1.14S372.51,265.83,372.55,265.94Z"/><path class="cls-6" d="M372.21,269.39c.12,0,.07-.65-.45-1.17s-1.15-.57-1.16-.46.44.33.86.76S372.1,269.42,372.21,269.39Z"/><path class="cls-6" d="M373.84,261.19c.09.09.56-.26,1.22-.45s1.24-.17,1.27-.29-.61-.35-1.39-.11S373.76,261.12,373.84,261.19Z"/><path class="cls-6" d="M372.92,258.77c0,.05.49,0,1.17-.43a5.26,5.26,0,0,0,1.09-.82,6.42,6.42,0,0,0,.55-.6,1.44,1.44,0,0,0,.25-.41.53.53,0,0,0-.16-.63.73.73,0,0,0-.6-.08,2.33,2.33,0,0,0-.42.22,4.82,4.82,0,0,0-.64.52,4.3,4.3,0,0,0-.82,1.1c-.37.7-.4,1.2-.35,1.2s.2-.43.6-1a5.47,5.47,0,0,1,.84-1,4.69,4.69,0,0,1,.6-.45c.22-.15.43-.23.54-.14s0,0,0,.14a1.29,1.29,0,0,1-.19.29,5.75,5.75,0,0,1-.49.58,7.77,7.77,0,0,1-1,.85A10.1,10.1,0,0,0,372.92,258.77Z"/><path class="cls-6" d="M373.13,258.88a2,2,0,0,0-.1-1.25,4.07,4.07,0,0,0-.63-1.22,3.89,3.89,0,0,0-.55-.61,1,1,0,0,0-1-.32.6.6,0,0,0-.37.5,1.46,1.46,0,0,0,0,.48,2.47,2.47,0,0,0,.28.79,3,3,0,0,0,.94,1,1.66,1.66,0,0,0,1.2.37c0-.08-.46-.15-1-.61a2.76,2.76,0,0,1-.77-1,2.94,2.94,0,0,1-.23-.69c-.05-.26,0-.49.07-.5a.7.7,0,0,1,.55.24,3.25,3.25,0,0,1,.52.53,4.17,4.17,0,0,1,.66,1.09C373,258.41,373.06,258.89,373.13,258.88Z"/><path class="cls-10" d="M392.33,249.91l4.8,11.92s-10.5,8.89-9.83,11.18l23.45-8.48L404,245.65Z"/><path class="cls-2" d="M404,258.19a1,1,0,0,1,1.06.86,1,1,0,0,1-.83,1.05,1.07,1.07,0,0,1-1.12-.91c0-.5.5-1.07,1-1"/><g class="cls-11"><path class="cls-3" d="M410.75,264.53l-.75-1.88-22.2,8.83s-.88.83-.5,1.53Z"/></g><path class="cls-6" d="M396.71,261.85c0,.11.63,0,1.33.12s1.17.54,1.26.46-.32-.69-1.17-.87S396.65,261.75,396.71,261.85Z"/><path class="cls-6" d="M394.62,263.76c0,.12.58.13,1.14.48s.86.81,1,.77,0-.72-.75-1.14S394.58,263.65,394.62,263.76Z"/><path class="cls-6" d="M394.28,267.21c.12,0,.07-.65-.45-1.17s-1.15-.57-1.16-.46.44.33.86.76S394.17,267.24,394.28,267.21Z"/><path class="cls-6" d="M395.92,259c.08.09.55-.26,1.21-.45s1.24-.17,1.27-.29-.61-.35-1.39-.11S395.83,258.94,395.92,259Z"/><path class="cls-6" d="M395,256.59a2.37,2.37,0,0,0,1.17-.43,5.57,5.57,0,0,0,1.1-.82,6.36,6.36,0,0,0,.54-.6,1.71,1.71,0,0,0,.26-.41.55.55,0,0,0-.17-.63.73.73,0,0,0-.6-.08,1.83,1.83,0,0,0-.42.22,4.82,4.82,0,0,0-.64.52,4.3,4.3,0,0,0-.82,1.1,2.09,2.09,0,0,0-.35,1.2c.07,0,.2-.43.61-1.05a4.63,4.63,0,0,1,1.43-1.42c.22-.15.43-.23.54-.14s0,0,0,.14a1.56,1.56,0,0,1-.19.29,5.75,5.75,0,0,1-.49.58,7.77,7.77,0,0,1-1,.85A10.1,10.1,0,0,0,395,256.59Z"/><path class="cls-6" d="M395.2,256.7a1.94,1.94,0,0,0-.1-1.25,3.85,3.85,0,0,0-.63-1.22,3.89,3.89,0,0,0-.55-.61,1,1,0,0,0-1-.32.58.58,0,0,0-.37.5,1.79,1.79,0,0,0,0,.48,2.56,2.56,0,0,0,.28.79,3,3,0,0,0,.94,1c.68.44,1.21.41,1.2.36a8.94,8.94,0,0,1-1-.6,2.85,2.85,0,0,1-.77-1,2.53,2.53,0,0,1-.22-.69c-.06-.26,0-.49.07-.5s.38.07.54.23a4.49,4.49,0,0,1,.53.54,4.4,4.4,0,0,1,.65,1.09C395.1,256.23,395.13,256.7,395.2,256.7Z"/><path class="cls-20" d="M408.5,95.45l-2.24,18.34,3.48,8.46-13.77.48-2.86-6.6s-6.83-.78-7.1-5.15c-.17-2.79,4.33-23.13,4.33-23.13Z"/><path class="cls-6" d="M404.08,117.28a6.88,6.88,0,0,0,3.16-3.67c.72-1.83,1.18-3.75,2-5.54s2.08-3.56,2.92-5.45a7.53,7.53,0,0,0,.45-6s-.29-2.42-3.55-3.31c0,0-1.85-5.13-6.08-5.62-5.75-.65-5.55-2.34-9.3-3.78a3.64,3.64,0,0,0-4.87,1.76,5.58,5.58,0,0,0-2.86,3.17v.06a5,5,0,0,0,2.34,5.52l.7.4a4.76,4.76,0,0,1,1.77,1.42,4.2,4.2,0,0,1,.22,3.29,8.94,8.94,0,0,0-.53,3.33c.06.39.28.84.67.82s.56-.63.7-1.07a1.94,1.94,0,0,1,3.27-.71,2,2,0,0,1,.08,2.55c-.63.83-1.74,1.35-2.14,2.33-.68,1.64,1,3.57,1.59,4.66a6.6,6.6,0,0,0,.68,1.11,16.31,16.31,0,0,0,4.81,4.19,4.43,4.43,0,0,0,4.51.22"/><path class="cls-20" d="M347.39,139.45h0c-2.42-1-4-2-5.6-2.55-2-.73-2.77-1.17-2.61-1.53s.11-.31,3.93.49c0,0-5.44-1.19-4.06-1.86.61-.3,5.14.65,5.14.65-3.71-.43-5-1.17-4.94-1.73.13-.81,5.62.38,5.62.38a40.81,40.81,0,0,1-4.89-1.2c-.69-.37.19-.73,1-.81s6.28.09,7.84.06a.91.91,0,0,0,1-1,5.78,5.78,0,0,1,.85-4.6c.47-.43,1.22.08,1.06.77a8.39,8.39,0,0,0,0,2.28,5.33,5.33,0,0,0,.5,1.75c.31.64.6,1.17.85,1.61l7.71,8.42-3.33,8Z"/><path class="cls-21" d="M345.39,136.4a10.72,10.72,0,0,1-2.63-.45,10.49,10.49,0,0,1-2.56-.78,9.82,9.82,0,0,1,2.64.44A10,10,0,0,1,345.39,136.4Z"/><path class="cls-21" d="M345.86,135a11.27,11.27,0,0,1-2.84-.31,11.68,11.68,0,0,1-2.78-.66,11.27,11.27,0,0,1,2.84.31A12.28,12.28,0,0,1,345.86,135Z"/><path class="cls-21" d="M346.33,133.47a20.52,20.52,0,0,1-5.32-.85,10.51,10.51,0,0,1,2.69.25A11.07,11.07,0,0,1,346.33,133.47Z"/><path class="cls-6" d="M397.84,175.36l-32.94,5a16.06,16.06,0,0,0-11,7.1h0a16,16,0,0,0-2,13.24l17.4,55.47L385,250.19l-9.65-49,51-3.42V175.36l-28.46-1"/><path class="cls-6" d="M421,175.36l-32.94,5a16.06,16.06,0,0,0-11,7.1h0a16,16,0,0,0-2,13.24l15.17,52.17,17.55-4.63-9.26-47.05,34-2.29V176.5L421,174.34"/><path class="cls-22" d="M355.58,134.27c.68-.09,23.05,17.35,23.05,17.35l-14.28,5.69L349.87,143S349,135.18,355.58,134.27Z"/><path class="cls-23" d="M427.94,127.42c-3.73-5.4-10.07-7.27-12.27-7.78a6.88,6.88,0,0,0-1.43-.15h-19a13.31,13.31,0,0,0-9.25,3.68,45.25,45.25,0,0,0-7.32,9.42l-9.58,13.32-5.9,9.89,1.2,1.51a9.91,9.91,0,0,0,11.84,3,12.16,12.16,0,0,0,4.69-4.53c2.4-3.54,4.92-7.37,6.58-10.29L397.08,173l-5.15,3.26L413.6,185l22.56-9.65-6.23-22.2h0s9.88,1,10.8-2.92S432.51,134,427.94,127.42Z"/><path class="cls-4" d="M425.71,137.49a90.28,90.28,0,0,1,4.5,8.33c.18.37.72,0,.55-.32a70.25,70.25,0,0,0-4.69-8.22c-.14-.22-.5,0-.36.21Z"/><path class="cls-4" d="M430.19,135.89a90.11,90.11,0,0,1,4.5,8.32c.18.37.72,0,.55-.32a70.13,70.13,0,0,0-4.69-8.21.21.21,0,0,0-.36.21Z"/><path class="cls-4" d="M421.38,138.13c.95,3.69,1.7,7.43,2.31,11.2.08.52.89.3.8-.22A75.43,75.43,0,0,0,421.72,138a.18.18,0,0,0-.34.1Z"/><path class="cls-4" d="M411.17,139.18a44.92,44.92,0,0,1,1.86,11.1c0,.52.83.53.82,0a37.11,37.11,0,0,0-2.28-11.21c-.09-.25-.48-.15-.4.11Z"/><path class="cls-4" d="M419.52,148.18a49.77,49.77,0,0,1-2.47-10.46c-.05-.48-.77-.51-.77,0a21,21,0,0,0,2.84,10.63.22.22,0,0,0,.4-.17Z"/><path class="cls-4" d="M406.62,139.48A47.56,47.56,0,0,0,408.15,150a.38.38,0,0,0,.74-.2c-.67-3.47-1.3-6.92-1.87-10.41,0-.22-.41-.17-.4.06Z"/><path class="cls-4" d="M401.14,140.1c.95,3.87,1.66,7.76,2.35,11.68.07.37.72.29.67-.09A64,64,0,0,0,401.43,140a.15.15,0,0,0-.29.08Z"/><path class="cls-4" d="M396.14,141a46.65,46.65,0,0,0,1.18,10.79c.1.38.63.21.58-.16A100.11,100.11,0,0,1,396.61,141a.24.24,0,0,0-.47,0Z"/><path class="cls-4" d="M380.16,150.88a78,78,0,0,0,8.11-9.63c.22-.29-.27-.66-.51-.39a78.65,78.65,0,0,0-7.81,9.86c-.08.13.1.26.21.16Z"/><path class="cls-4" d="M376.65,147.73a34,34,0,0,0,7-8.54c.22-.37-.34-.68-.57-.34-2.07,3-4.38,5.77-6.64,8.63a.18.18,0,0,0,.25.25Z"/><path class="cls-4" d="M378.76,137.46c-2,2.23-4.05,4.42-5.93,6.75-.26.31.17.76.44.45,2-2.24,3.84-4.63,5.73-7,.14-.17-.09-.41-.24-.24Z"/><path class="cls-4" d="M391.06,141.54c.85,3.59,1.35,7.23,2.13,10.82.08.34.66.27.62-.08a82.28,82.28,0,0,0-2.27-10.87.25.25,0,0,0-.48.13Z"/><g class="cls-18"><path d="M420,149.24a5.26,5.26,0,0,0-4.05,2,12.41,12.41,0,0,0-2.1,4.15,42.94,42.94,0,0,0-2.25,14.7c0,1.53.05,3.28-1.1,4.28-1,.85-2.46.79-3.68,1.26-1.94.76-3.61,3.36-3,5.37l10.89,4.13Z"/></g><path class="cls-6" d="M407.73,172.26a3.62,3.62,0,0,1-1.24.48,14.54,14.54,0,0,1-6.38.29,4.17,4.17,0,0,1-1.28-.37c0-.12,2,.33,4.47.21A42.19,42.19,0,0,0,407.73,172.26Z"/><polygon class="cls-17" points="368.51 202.07 359.84 274.77 363.59 274.77 372.79 202.07 368.51 202.07"/><polygon class="cls-17" points="403.05 202.07 411 274.77 415.09 274.77 407.33 202.07 403.05 202.07"/><polyline class="cls-17" points="445.88 202.07 452.51 274.77 457.06 274.77 449.5 202.07 444.01 202.07"/><path class="cls-17" d="M423.75,139.61h32.11a5,5,0,0,1,4.95,5.71l-7.6,53.06a4.31,4.31,0,0,1-4.26,3.69H407.33Z"/><path class="cls-17" d="M364.23,202.07c.08-.8,0-4.82,0-4.82l39.83.75a6.12,6.12,0,0,0,6.15-5.13l7.94-48.5a5.68,5.68,0,0,1,5.6-4.76h0l-8.66,54.61a9.32,9.32,0,0,1-9.2,7.85Z"/><path class="cls-6" d="M423.75,139.61s0,.06,0,.17l-.06.49c-.06.46-.15,1.09-.26,1.88-.25,1.66-.61,4-1,6.91-.92,5.85-2.18,13.88-3.57,22.75-.71,4.45-1.38,8.68-2,12.53-.31,1.92-.61,3.75-.89,5.46a38.09,38.09,0,0,1-1,4.74,13,13,0,0,1-1.65,3.64,9,9,0,0,1-2.05,2.22,7.58,7.58,0,0,1-1.66.93,4.18,4.18,0,0,1-.64.19,8.67,8.67,0,0,0,2.21-1.24,11,11,0,0,0,3.54-5.81,39.23,39.23,0,0,0,.91-4.72l.85-5.46c.61-3.86,1.28-8.09,2-12.53,1.43-8.87,2.73-16.9,3.67-22.74.48-2.89.88-5.23,1.15-6.89.14-.79.26-1.41.34-1.87l.09-.48A.69.69,0,0,1,423.75,139.61Z"/><path class="cls-6" d="M425.53,140a14.53,14.53,0,0,1-1.94-2.74,15.13,15.13,0,0,1-1.62-2.93A15.34,15.34,0,0,1,423.9,137,15.89,15.89,0,0,1,425.53,140Z"/><path class="cls-6" d="M364.91,151.72a28.74,28.74,0,0,1,2.49-3.88,30,30,0,0,1,2.79-3.67,27.59,27.59,0,0,1-2.49,3.88A30,30,0,0,1,364.91,151.72Z"/><path class="cls-6" d="M391.78,138.86a4.91,4.91,0,0,1-.44.82c-.33.58-.75,1.3-1.26,2.17-1.08,1.82-2.61,4.33-4.37,7s-3.42,5.14-4.66,6.86c-.62.86-1.13,1.55-1.5,2a4.86,4.86,0,0,1-.59.71,4.41,4.41,0,0,1,.48-.79l1.4-2.09c1.18-1.75,2.8-4.19,4.56-6.91l4.46-7c.57-.89,1-1.61,1.36-2.11A4.1,4.1,0,0,1,391.78,138.86Z"/><path class="cls-6" d="M199.2,56.87a5.07,5.07,0,0,1,1.63-6.8,6.58,6.58,0,0,1,7.31.52,6.89,6.89,0,0,1,2.31,6.61c-.25,1.74-3,5.27-5.55,3.72"/><path class="cls-6" d="M183.62,71.57c-5.74-11.12,6.28-17.46,13.1-15.9,6.4,1.47,9.25,4.48,10.5,8.65a20.85,20.85,0,0,1,0,12.86c-.71,2-2.08,4.11-4.2,4.47"/><path class="cls-20" d="M201.06,61.8a2.15,2.15,0,0,1,2,2.08h0l.23,29c.12,3.43-4.78,5.61-8.45,5.72h0c-3.7.11-3.91-1.7-4.13-5-.36-5.43-.46-7.47-.46-7.44s-4.72-.54-6-6.6a65,65,0,0,1-.67-12.07c0-3.67,2.24-8.28,5.91-8.08Z"/><path class="cls-6" d="M185.22,71.28a.8.8,0,0,0,.8.76.75.75,0,0,0,.77-.75.78.78,0,0,0-.79-.75A.75.75,0,0,0,185.22,71.28Z"/><path class="cls-6" d="M184.82,70.11c.11.09.68-.38,1.52-.41s1.48.35,1.56.24-.06-.23-.34-.41a2.15,2.15,0,0,0-1.26-.32,2.08,2.08,0,0,0-1.2.45C184.85,69.87,184.77,70.06,184.82,70.11Z"/><path class="cls-6" d="M193.15,70.89a.78.78,0,0,0,.79.75.75.75,0,0,0,.77-.74.78.78,0,0,0-.79-.76A.75.75,0,0,0,193.15,70.89Z"/><path class="cls-6" d="M193.11,69.85c.1.1.67-.37,1.51-.41s1.48.35,1.57.24-.07-.22-.35-.41a2.13,2.13,0,0,0-1.26-.32,2.11,2.11,0,0,0-1.2.46C193.14,69.62,193.06,69.81,193.11,69.85Z"/><path class="cls-6" d="M190.36,76.25a5.05,5.05,0,0,0-1.38-.18c-.21,0-.42,0-.46-.19a1.12,1.12,0,0,1,.11-.65c.18-.53.36-1.08.55-1.66a29.11,29.11,0,0,0,1.22-4.36,26.94,26.94,0,0,0-1.56,4.25c-.19.58-.36,1.14-.53,1.68a1.19,1.19,0,0,0-.07.84.55.55,0,0,0,.37.3,1.23,1.23,0,0,0,.37,0A5.8,5.8,0,0,0,190.36,76.25Z"/><path class="cls-21" d="M190.28,86.24a15.51,15.51,0,0,0,8.06-2.59s-1.77,4.29-7.91,4Z"/><path class="cls-21" d="M190.82,78.26a1.5,1.5,0,0,1,1.33-.63,1.38,1.38,0,0,1,1,.46.87.87,0,0,1,.12,1,1,1,0,0,1-1.09.34,3.4,3.4,0,0,1-1.11-.59,1,1,0,0,1-.25-.24.27.27,0,0,1,0-.31"/><path class="cls-6" d="M192.87,76.71c-.14,0-.09.91-.84,1.6s-1.73.63-1.73.76.22.17.64.16a2.31,2.31,0,0,0,1.44-.59A2,2,0,0,0,193,77.3C193.05,76.92,192.93,76.7,192.87,76.71Z"/><path class="cls-6" d="M192.65,68.4c.1.22.93.07,1.93.14s1.8.3,1.92.09-.09-.31-.42-.52a3.35,3.35,0,0,0-2.94-.18C192.79,68.1,192.61,68.29,192.65,68.4Z"/><path class="cls-6" d="M185,67.65c.16.19.73,0,1.43-.08s1.29.06,1.42-.15-.05-.28-.32-.45a1.92,1.92,0,0,0-1.17-.26,2,2,0,0,0-1.12.44C185,67.36,184.94,67.56,185,67.65Z"/><path class="cls-6" d="M185.35,59.88a5.88,5.88,0,0,0,2.47,5.66,11.54,11.54,0,0,0,3.48,1.37l2.32.63a19.23,19.23,0,0,0,5.24.92c-.09,2-.32,3.33.75,5,1,1.51,2.36,2.57,4.18,2.13a60.18,60.18,0,0,0,.68-11.92,5.6,5.6,0,0,0-.61-3c-.92-1.42-2.85-1.7-4.55-1.83l-7.12-.56a14.63,14.63,0,0,0-3.5,0,4.82,4.82,0,0,0-3,1.63"/><path class="cls-17" d="M208.32,68.49l-.07,0h-.2a1.84,1.84,0,0,1-.75-.17,3.44,3.44,0,0,1-1-.71,14.68,14.68,0,0,1-1-1.25,6,6,0,0,0-1.39-1.29,7.91,7.91,0,0,0-2-.92,17.07,17.07,0,0,0-5-.55,23.33,23.33,0,0,1-5.11-.35,7.43,7.43,0,0,1-3.68-2,5.63,5.63,0,0,1-1-1.3,4.29,4.29,0,0,1-.42-1.15,3.12,3.12,0,0,1,0-1s0,.37.15,1a4.26,4.26,0,0,0,.44,1.1,5.06,5.06,0,0,0,1,1.24,7.19,7.19,0,0,0,3.6,1.87,24,24,0,0,0,5.06.33A16.3,16.3,0,0,1,202,64a7.53,7.53,0,0,1,2,1,6,6,0,0,1,1.42,1.36c.36.47.66.91,1,1.25a3,3,0,0,0,.94.72A2.25,2.25,0,0,0,208.32,68.49Z"/><path class="cls-17" d="M207.34,64.75a1.63,1.63,0,0,0-.12-.87,3.54,3.54,0,0,0-1.82-1.51,12.12,12.12,0,0,0-3.48-.93,31.58,31.58,0,0,0-4.45,0A19.9,19.9,0,0,1,193,61.3,8.9,8.9,0,0,1,189.57,60a5.69,5.69,0,0,1-1.74-1.76,4.38,4.38,0,0,1-.31-.6c-.05-.14-.08-.21-.07-.22s.14.29.46.77a6,6,0,0,0,1.75,1.66A9.1,9.1,0,0,0,193,61.08a21.45,21.45,0,0,0,4.44.14,29.15,29.15,0,0,1,4.48,0,11.91,11.91,0,0,1,3.53,1,3.5,3.5,0,0,1,1.84,1.62,1.38,1.38,0,0,1,.09.68A.53.53,0,0,1,207.34,64.75Z"/><path class="cls-17" d="M210,53.05a1,1,0,0,1,.1.41,2.59,2.59,0,0,1-.2,1.12,6.29,6.29,0,0,1-2.55,2.71,5.94,5.94,0,0,1-1.93.75,6.13,6.13,0,0,1-1.69.05,6.87,6.87,0,0,1-1.11-.2,1.6,1.6,0,0,1-.4-.14s.59.11,1.52.17a6.27,6.27,0,0,0,1.63-.1,6,6,0,0,0,1.85-.74,6.62,6.62,0,0,0,2.52-2.56A3.07,3.07,0,0,0,210,53.05Z"/><path class="cls-17" d="M207.81,50.36a1.1,1.1,0,0,1,0,.41,5.6,5.6,0,0,1-.21,1.09,7.28,7.28,0,0,1-5,5,6.7,6.7,0,0,1-1.09.22,1.1,1.1,0,0,1-.41,0s.58-.09,1.45-.39a7.61,7.61,0,0,0,4.88-4.92C207.72,50.94,207.77,50.35,207.81,50.36Z"/><path class="cls-17" d="M207.21,76.81a1.72,1.72,0,0,1,0-.33c0-.21,0-.52,0-.92a10.35,10.35,0,0,0-.62-3.31,6.61,6.61,0,0,0-1.19-2,5.38,5.38,0,0,0-2.18-1.46c-1.77-.67-3.89-.56-6.08-.65A18.67,18.67,0,0,1,191,67a10.24,10.24,0,0,1-4.12-2.91,7.73,7.73,0,0,1-1.59-3,6.13,6.13,0,0,1-.16-.92,1.11,1.11,0,0,1,0-.32s0,.44.26,1.21A8.15,8.15,0,0,0,187,64a10.19,10.19,0,0,0,4.07,2.81,18.51,18.51,0,0,0,6,1.13c2.17.1,4.32,0,6.15.69a5.54,5.54,0,0,1,2.25,1.54,6.54,6.54,0,0,1,1.2,2,9.8,9.8,0,0,1,.55,3.37c0,.4,0,.71,0,.92A1.39,1.39,0,0,1,207.21,76.81Z"/><path class="cls-9" d="M205.82,61.08a11.35,11.35,0,0,1-.87-.93,14.68,14.68,0,0,0-2.32-2,15.55,15.55,0,0,0-2.69-1.47,11.22,11.22,0,0,1-1.18-.48,4.6,4.6,0,0,1,1.24.32A12.67,12.67,0,0,1,202.77,58a11.83,11.83,0,0,1,2.3,2.08A4.82,4.82,0,0,1,205.82,61.08Z"/><path class="cls-20" d="M202.44,71.93c.09-.05,3.2-1.61,3.41,2s-3.49,3.12-3.5,3S202.44,71.93,202.44,71.93Z"/><path class="cls-21" d="M203.38,75.53s.07,0,.18.09a.67.67,0,0,0,.48,0,1.61,1.61,0,0,0,.64-1.46,2.18,2.18,0,0,0-.23-.9.78.78,0,0,0-.51-.46.33.33,0,0,0-.37.2c0,.1,0,.18,0,.18s-.08,0-.06-.21a.39.39,0,0,1,.13-.23.49.49,0,0,1,.34-.12.9.9,0,0,1,.7.53,2.16,2.16,0,0,1,.28,1,1.67,1.67,0,0,1-.83,1.64.7.7,0,0,1-.59-.07C203.39,75.62,203.37,75.54,203.38,75.53Z"/><path class="cls-20" d="M148.72,104.59s-2.46-4.82-3.07-5.28-6.11-2.38-6.58-2.22-7,1.39-6.28,2.16,5.37-.15,5.37-.15l.62.29a28.24,28.24,0,0,0-4.8,1.2c-.77.46-.49,1.4.24,1.31s4.18-.81,4.39-.67-3.75,1-4.18,1.25-.61,1.38.12,1.32c.43,0,4.16-1.07,4.16-1.07a30.91,30.91,0,0,0-3.23,1.46c-.44.43-.07,1.07.57.92.44-.11,2.52-1.14,3.11-1.28,0,0,.56.14,1.08,1.25s4.17,3.89,4.17,3.89Z"/><path class="cls-20" d="M147.21,104.68a1.32,1.32,0,0,1-1.54,0c-.48-.27-.84-.7-1.3-1-1.36-.93-3.29-.67-4.61-1.66-.18-.14-.36-.37-.27-.58s.35-.21.56-.21l5.45,0"/><path class="cls-21" d="M145.5,101.28a2.36,2.36,0,0,0-.59-.06c-.38,0-.92,0-1.6-.07l-2.39-.05h-.68a1.05,1.05,0,0,0-.8.18.44.44,0,0,0-.08.51.89.89,0,0,0,.28.35,3.4,3.4,0,0,0,.69.41,21.19,21.19,0,0,0,2.83.76,4.15,4.15,0,0,1,1.13.49c.32.21.59.47.86.68a1.94,1.94,0,0,0,1.54.52.74.74,0,0,0,.52-.31,1.73,1.73,0,0,1-.54.19,1.88,1.88,0,0,1-1.38-.57,9.59,9.59,0,0,0-.86-.72,4.35,4.35,0,0,0-1.19-.56,22.34,22.34,0,0,1-2.78-.77,3.23,3.23,0,0,1-.63-.36c-.18-.14-.27-.33-.17-.41s.34-.1.57-.09h.69l2.39,0,1.6,0A2.36,2.36,0,0,0,145.5,101.28Z"/><path class="cls-21" d="M132.8,99.27a3.28,3.28,0,0,0,1.21.31,6.73,6.73,0,0,0,1.37,0c.5-.06,1.05-.15,1.63-.24l1.23-.2h-.07A19.58,19.58,0,0,0,141,100a16.67,16.67,0,0,0-2.77-1.13l0,0h0l-1.22.19-1.62.26a8.59,8.59,0,0,1-1.32,0A11.28,11.28,0,0,0,132.8,99.27Z"/><path class="cls-10" d="M168,243.39l5.93,11s-9.21,9.74-8.31,11.88l21.79-10.74L178.82,238Z"/><path class="cls-2" d="M180.16,250.14a1,1,0,0,1,1.12.72,1,1,0,0,1-.7,1.11,1,1,0,0,1-1.17-.76,1,1,0,0,1,.85-1.08"/><g class="cls-11"><path class="cls-3" d="M187.37,255.55l-.93-1.74L165.9,264.76s-.76.9-.32,1.53Z"/></g><path class="cls-6" d="M173.49,254.47c0,.11.61-.11,1.3,0s1.19.39,1.27.3-.39-.63-1.23-.71S173.41,254.39,173.49,254.47Z"/><path class="cls-6" d="M171.67,256.55c0,.11.57.07,1.16.34s.92.69,1,.64-.12-.7-.85-1S171.62,256.44,171.67,256.55Z"/><path class="cls-6" d="M171.72,259.92c.11,0,0-.63-.57-1.08s-1.17-.43-1.17-.32.46.27.91.65S171.61,260,171.72,259.92Z"/><path class="cls-6" d="M172.41,251.81c.09.08.51-.31,1.13-.57s1.18-.29,1.19-.41-.62-.28-1.35,0S172.32,251.75,172.41,251.81Z"/><path class="cls-6" d="M171.25,249.57a2.33,2.33,0,0,0,1.09-.55,5,5,0,0,0,1-.91,6.14,6.14,0,0,0,.46-.64,1.64,1.64,0,0,0,.21-.42.52.52,0,0,0-.23-.59.68.68,0,0,0-.59,0,2.08,2.08,0,0,0-.38.26,4.29,4.29,0,0,0-.56.57,4,4,0,0,0-.68,1.16,2,2,0,0,0-.21,1.2c.07,0,.15-.44.47-1.08a4.82,4.82,0,0,1,.7-1,3.68,3.68,0,0,1,.54-.5c.2-.18.39-.28.5-.2s.05,0,0,.13a1.23,1.23,0,0,1-.15.31,5.47,5.47,0,0,1-.42.61,6.07,6.07,0,0,1-.85.93C171.62,249.28,171.22,249.51,171.25,249.57Z"/><path class="cls-6" d="M171.47,249.65a2,2,0,0,0-.23-1.2,4,4,0,0,0-.74-1.12,4.5,4.5,0,0,0-.61-.52,1,1,0,0,0-1-.21.58.58,0,0,0-.31.53,1.43,1.43,0,0,0,.09.45,2.43,2.43,0,0,0,.36.74,2.75,2.75,0,0,0,1,.9,1.58,1.58,0,0,0,1.2.22,9.11,9.11,0,0,1-1.06-.48,2.86,2.86,0,0,1-.85-.85,2.66,2.66,0,0,1-.29-.64c-.08-.25-.08-.48,0-.5a.71.71,0,0,1,.55.17,4.4,4.4,0,0,1,.57.46,4.35,4.35,0,0,1,.74,1C171.32,249.21,171.4,249.66,171.47,249.65Z"/><path class="cls-10" d="M173.77,252.93l-2.26,12.32s-13.27,1.84-13.91,4.07l23.72,5.24,4.3-19Z"/><path class="cls-2" d="M179.07,265.84a1,1,0,0,1,.43,1.25,1,1,0,0,1-1.24.43,1,1,0,0,1-.44-1.33,1,1,0,0,1,1.33-.3"/><g class="cls-11"><path class="cls-3" d="M181.32,274.56l.36-1.94-22.88-4.3s-1.16.23-1.2,1Z"/></g><path class="cls-6" d="M171.15,265c0,.12.55.3,1,.8s.68,1.05.8,1,.09-.73-.51-1.33S171.15,264.93,171.15,265Z"/><path class="cls-6" d="M168.44,265.52c-.05.11.4.41.69,1s.28,1.12.4,1.14.34-.62,0-1.33S168.46,265.41,168.44,265.52Z"/><path class="cls-6" d="M166.37,268.19c.1,0,.39-.5.23-1.2s-.64-1.07-.71-1,.19.5.31,1.08S166.26,268.15,166.37,268.19Z"/><path class="cls-6" d="M172,262.29c0,.12.59.08,1.24.26s1.11.51,1.19.43-.32-.61-1.08-.82S171.94,262.19,172,262.29Z"/><path class="cls-6" d="M172.48,259.82a2.35,2.35,0,0,0,1.19.25A5.4,5.4,0,0,0,175,260a6.24,6.24,0,0,0,.76-.21,1.43,1.43,0,0,0,.42-.2.5.5,0,0,0,.19-.6.65.65,0,0,0-.45-.38,1.91,1.91,0,0,0-.46,0,4.89,4.89,0,0,0-.79.09,4.48,4.48,0,0,0-1.26.48c-.66.39-.94.78-.91.81s.39-.25,1.05-.55a4.79,4.79,0,0,1,1.19-.36,4.23,4.23,0,0,1,.73-.06c.26,0,.48,0,.52.16s0,.07-.06.13a1.29,1.29,0,0,1-.31.14,5.23,5.23,0,0,1-.71.22,6.25,6.25,0,0,1-1.24.19A7,7,0,0,0,172.48,259.82Z"/><path class="cls-6" d="M172.6,260s.35-.33.56-1.07a4.23,4.23,0,0,0,.13-1.34,3.91,3.91,0,0,0-.15-.79,1,1,0,0,0-.62-.77.56.56,0,0,0-.57.23,1.64,1.64,0,0,0-.22.41,2.89,2.89,0,0,0-.18.8,2.83,2.83,0,0,0,.24,1.33c.33.72.78,1,.8.93a10.4,10.4,0,0,1-.53-1,2.84,2.84,0,0,1-.13-1.2,2.36,2.36,0,0,1,.18-.68c.09-.25.23-.43.32-.38s.27.26.33.48a4.74,4.74,0,0,1,.15.71,4.48,4.48,0,0,1,0,1.23C172.76,259.58,172.54,260,172.6,260Z"/><path class="cls-6" d="M184.65,139.59l-36.44,46.94a17,17,0,0,0-2.66,15.9L172,256.27l8.85-15L165.68,198.7,185.4,175l8.78-36.3Z"/><path class="cls-6" d="M170.48,263.4,186.8,149.5l.81-10.19,20-1.08s7,10.9,7.33,17.57-18.21,53.33-18.21,53.33l-2.66,18.62-11.2,39.44Z"/><path class="cls-17" d="M187.44,141.43c.1,0-3.62,27.33-8.3,61s-8.56,61-8.66,61,3.61-27.32,8.3-61S187.34,141.42,187.44,141.43Z"/><path class="cls-17" d="M165.57,198.76c0,.05-.45-.3-1.2-.69a7.51,7.51,0,0,0-6.33-.24c-.78.33-1.21.64-1.25.59a3.38,3.38,0,0,1,1.14-.83,6.85,6.85,0,0,1,6.57.26A3.2,3.2,0,0,1,165.57,198.76Z"/><path class="cls-17" d="M208.8,145.23s-.14.11-.43.25a6.66,6.66,0,0,1-1.3.46,9.37,9.37,0,0,1-2,.28,10.48,10.48,0,0,1-2.49-.24,10.73,10.73,0,0,1-2.34-.87,8.8,8.8,0,0,1-1.7-1.14,6.51,6.51,0,0,1-1-1c-.2-.25-.3-.4-.28-.41s.51.5,1.4,1.19a10.57,10.57,0,0,0,1.69,1,10.38,10.38,0,0,0,4.68,1.07,11.15,11.15,0,0,0,2-.19C208.13,145.46,208.77,145.16,208.8,145.23Z"/><path class="cls-17" d="M150.33,212.19a7.38,7.38,0,0,1-.63-1.12c-.39-.73-.94-1.79-1.59-3.11A48.34,48.34,0,0,1,146,203.2a23.77,23.77,0,0,1-.88-2.95,15.82,15.82,0,0,1-.46-3.28,13.8,13.8,0,0,1,.3-3.3,18.07,18.07,0,0,1,.94-2.94,26.15,26.15,0,0,1,2.57-4.52c.85-1.21,1.59-2.15,2.12-2.78.26-.32.47-.56.62-.72a1.72,1.72,0,0,1,.23-.24,8.83,8.83,0,0,1-.74,1.05c-.49.66-1.2,1.61-2,2.84a27.23,27.23,0,0,0-2.46,4.5,18,18,0,0,0-.91,2.88,13.65,13.65,0,0,0-.28,3.22,15.92,15.92,0,0,0,.44,3.21,26.33,26.33,0,0,0,.85,2.92c.64,1.82,1.37,3.42,2,4.76l1.49,3.16.39.86A1.29,1.29,0,0,1,150.33,212.19Z"/><polygon class="cls-24" points="180.34 97.43 166.81 113 149.26 103.29 143.13 109.43 165.9 125.04 176.07 124.89 184.74 107.79 180.34 97.43"/><path class="cls-25" d="M175.39,108.92l7.53,31.73,25.27-2.17,3.25-24.95,6.76-10.65a12.57,12.57,0,0,0-12.79-10.1l-1.8-4.22L190.3,89.67l-1.59,3.88s-11,.78-10.7,10.73Z"/><g class="cls-18"><path d="M181.78,135.88a13.21,13.21,0,0,0,11.31-2.17,4,4,0,0,1,1.5-.86,3.53,3.53,0,0,1,1.81.26,33.67,33.67,0,0,0,8.38,1.49,6,6,0,0,0,2.91-.38,2.28,2.28,0,0,0,1.35-2.4,76.49,76.49,0,0,0-13.15-3.56,17.87,17.87,0,0,0-7-.19,20.12,20.12,0,0,0-6.47,3.22,2.84,2.84,0,0,0-1.28,1.33c-.4,1.16.78,2.38.53,3.59"/></g><path class="cls-26" d="M200.73,102.47c.71.64,10.11,16.75,10.11,16.75l-15,3.29-.51,7.4,14.76,2.14,6.64.7a8.51,8.51,0,0,0,7.69-3.31h0a8.52,8.52,0,0,0,1.06-8.53l-7.67-19.52Z"/><path class="cls-6" d="M215,119.17c0,.1-4.25.93-9.54,1.85s-9.59,1.59-9.61,1.48,4.26-.92,9.55-1.84S215,119.07,215,119.17Z"/><path class="cls-6" d="M211.42,119.77a4.14,4.14,0,0,1-.4-.81c-.26-.59-.59-1.34-1-2.24-.81-1.89-1.89-4.52-3.07-7.44-.59-1.46-1.14-2.84-1.65-4.12a7.45,7.45,0,0,1-.65-3.59,3.67,3.67,0,0,1,1.08-2.21,2.59,2.59,0,0,1,.54-.4.67.67,0,0,1,.22-.09s-.28.17-.66.59a3.68,3.68,0,0,0-.92,2.14,7.45,7.45,0,0,0,.71,3.44c.51,1.27,1.08,2.65,1.67,4.1,1.18,2.92,2.23,5.56,3,7.49l.86,2.28A4.11,4.11,0,0,1,211.42,119.77Z"/><path class="cls-6" d="M219.12,132.8a4.19,4.19,0,0,1-1,0c-.61,0-1.49,0-2.57-.08-2.17-.11-5.17-.38-8.45-.84s-6.25-1-8.39-1.34l-2.53-.46a5.3,5.3,0,0,1-.92-.21,4.12,4.12,0,0,1,.94.07c.61.07,1.48.19,2.55.34,2.15.31,5.12.78,8.4,1.23s6.25.77,8.42.95l2.56.2A5.3,5.3,0,0,1,219.12,132.8Z"/><path class="cls-6" d="M180,122.81a9.13,9.13,0,0,0-.39-2.68c-.23-.81-.61-1.75-.89-2.86a5.54,5.54,0,0,1-.19-1.8,7.1,7.1,0,0,1,.4-1.89,29.76,29.76,0,0,1,3.18-5.85l1.1-1.69a3.68,3.68,0,0,1,.41-.61,3,3,0,0,1-.29.68c-.22.42-.56,1-1,1.75a35.52,35.52,0,0,0-3.06,5.84,7,7,0,0,0-.39,1.8,5.28,5.28,0,0,0,.16,1.69c.26,1.08.61,2,.81,2.87a7.38,7.38,0,0,1,.26,2,3.15,3.15,0,0,1-.06.55Q180,122.81,180,122.81Z"/><path class="cls-6" d="M192.33,94.1a6.84,6.84,0,0,1-.05-2.3,7.29,7.29,0,0,1,.32-2.29,7.57,7.57,0,0,1,.05,2.31A7.55,7.55,0,0,1,192.33,94.1Z"/><path class="cls-6" d="M197.27,93.65a7.15,7.15,0,0,1-.54-2.21,7.23,7.23,0,0,1-.18-2.28,7.27,7.27,0,0,1,.54,2.22A7.17,7.17,0,0,1,197.27,93.65Z"/><path class="cls-6" d="M201.54,92.84a5.18,5.18,0,0,1-.72-1.8,5.25,5.25,0,0,1-.37-1.91,5.18,5.18,0,0,1,.72,1.8A5.25,5.25,0,0,1,201.54,92.84Z"/><g class="cls-18"><path d="M205.08,104.68c.08,4.83.94,8.84,1,13.67a3.07,3.07,0,0,0,.23,1.38c.54,1,1.77.74,2.94.67a11.23,11.23,0,0,0,1.8-.39,1.55,1.55,0,0,0-.15-1.07c-1.95-5-3.89-9.24-5.84-14.26"/></g><polygon class="cls-6" points="151.72 114.25 158.99 121.25 170.7 132.54 190.86 131.54 174.54 113.11 151.72 114.25"/><path class="cls-2" d="M154.91,114s-5.26,2.33.1,6.38,12.7,5.55,13.82,8.48a4.92,4.92,0,0,1-.71,4.94l15.45-.68s4.58-3.95,1.16-7.48-12.39-8.63-13.43-10,1.46-2.48,1.46-2.48Z"/><polygon class="cls-17" points="159.8 113.81 159.19 113.1 167.53 112.58 167.53 113.45 159.8 113.81"/><path class="cls-4" d="M169.94,116.17a11.29,11.29,0,0,1-2.07.31c-1.29.14-3.07.29-5,.4s-3.76.15-5.06.12a8.9,8.9,0,0,1-2.09-.18,19.34,19.34,0,0,1,2.09-.08c1.29,0,3.07-.12,5-.23l5-.29A12.86,12.86,0,0,1,169.94,116.17Z"/><path class="cls-4" d="M171.58,118.5a59.78,59.78,0,0,1-6.75.51,62.52,62.52,0,0,1-6.77.14,60.05,60.05,0,0,1,6.75-.51A62.51,62.51,0,0,1,171.58,118.5Z"/><path class="cls-4" d="M175.15,120.43a9.39,9.39,0,0,1-1.93.35c-1.2.15-2.87.33-4.71.48s-3.52.22-4.73.25a10.67,10.67,0,0,1-2,0,9.58,9.58,0,0,1,2-.22l4.71-.36,4.71-.37A10.69,10.69,0,0,1,175.15,120.43Z"/><path class="cls-4" d="M177.58,123.07a44.63,44.63,0,0,1-5.77.65A44.27,44.27,0,0,1,166,124a48.15,48.15,0,0,1,5.78-.64A47.58,47.58,0,0,1,177.58,123.07Z"/><path class="cls-4" d="M181.21,125.45a42.68,42.68,0,0,1-5.58.77,43.12,43.12,0,0,1-5.63.41,41.61,41.61,0,0,1,5.59-.78A43.88,43.88,0,0,1,181.21,125.45Z"/><path class="cls-4" d="M182.91,128.81a8,8,0,0,1-1.67.27c-1,.12-2.48.25-4.07.33s-3,.1-4.09.08a7.06,7.06,0,0,1-1.69-.11,9.27,9.27,0,0,1,1.69-.15l4.07-.19,4.06-.21A7.09,7.09,0,0,1,182.91,128.81Z"/><path class="cls-20" d="M195.32,129.78l-3.83-.6-14.27.34s-.75-.21-.1-.62c.31-.2,5.56-1.5,5.56-1.5l-7.53.61a10,10,0,0,1,2.87-3.43,19.66,19.66,0,0,1,5.36-2l-2.28-1.74s7.45-1,8.41-.12,2.12,2.17,2.12,2.17l4.12,0"/><path class="cls-21" d="M185.31,127c0,.11-2.25.18-5,.45s-5,.6-5,.5a5.45,5.45,0,0,1,1.44-.37c.9-.18,2.15-.37,3.54-.5s2.65-.18,3.56-.17A5.48,5.48,0,0,1,185.31,127Z"/><path class="cls-21" d="M184.87,125.13a25,25,0,0,1-4.28.79,25.73,25.73,0,0,1-4.33.43,26.26,26.26,0,0,1,4.28-.79A25.73,25.73,0,0,1,184.87,125.13Z"/><polygon class="cls-17" points="115.05 85.77 114.41 87.88 124.63 87.88 124.09 86.45 115.05 85.77"/><polygon class="cls-6" points="124.96 92.46 124.79 92.32 114.25 92.32 114.08 92.46 124.96 92.46"/><path class="cls-6" d="M123.18,104.15l2.17-16H113.69l2.17,16A25.23,25.23,0,0,0,123.18,104.15Z"/><path class="cls-17" d="M125.49,88.42H113.55v-.18a1,1,0,0,1,1-1h10a1,1,0,0,1,1,1Z"/><polygon class="cls-2" points="124.12 98.69 114.91 98.69 114.08 92.46 124.96 92.46 124.12 98.69"/><path class="cls-6" d="M120.81,96.58c.59-1.06.92-2.36-.27-3.11,0,0-1.13-.74-2.38.64-1,1.06-1.43,2.3-.64,3.26C118.46,98.52,120.21,97.64,120.81,96.58ZM119,96.41a2.56,2.56,0,0,0-1,1.18c-.11-.76.22-1.18,1.33-2a2.84,2.84,0,0,0,1.17-1.93C121.05,95,119.75,95.86,119,96.41Z"/><polygon class="cls-6" points="114.92 86.21 116.91 86.5 116.91 86.91 114.7 86.91 114.92 86.21"/><path class="cls-8" d="M118.46,96.73s-17.12,17.21-18.64,17.7c0,0-5.19-10.12-5.66-10.49l-10,5.61L90,122.1a9.33,9.33,0,0,0,15.84,2.72L122.69,105l3.39-3.76a8.85,8.85,0,0,0,1.35-3.43,6,6,0,0,0-.15-2.29,2.3,2.3,0,0,0-.09-1.78,1.34,1.34,0,0,0-.91-.6c.74-1.84-1.28-2.74-2.29-1.22"/><path class="cls-8" d="M117.83,97.36a4,4,0,0,0-1.55-2.1,4.36,4.36,0,0,0-2.37-.93s.2-1.23,2.23-1,2.58,1.58,5.09,1l.54,2.34Z"/><path class="cls-27" d="M126.43,92.83c.09,0-.2.77-.87,1.45s-1.39,1-1.43.9.54-.51,1.17-1.16S126.34,92.78,126.43,92.83Z"/><path class="cls-27" d="M127.21,95.48c.09,0-.06.56-.48,1.06s-.9.74-1,.66.29-.44.67-.9S127.12,95.43,127.21,95.48Z"/><path class="cls-27" d="M98.39,121.32A16.44,16.44,0,0,1,99.66,114c.11,0-.34,1.63-.69,3.64S98.5,121.33,98.39,121.32Z"/><polygon class="cls-17" points="36.85 86.98 36.21 89.08 46.43 89.08 45.89 87.65 36.85 86.98"/><polygon class="cls-6" points="46.76 93.66 46.59 93.52 36.05 93.52 35.88 93.66 46.76 93.66"/><path class="cls-6" d="M45,105.35l2.16-16H35.49l2.17,16A25.29,25.29,0,0,0,45,105.35Z"/><path class="cls-17" d="M47.29,89.63H35.35v-.19a1,1,0,0,1,1-1h10a1,1,0,0,1,1,1Z"/><polygon class="cls-2" points="45.93 99.9 36.72 99.9 35.88 93.66 46.76 93.66 45.93 99.9"/><path class="cls-6" d="M42.61,97.78c.59-1.06.92-2.36-.27-3.11,0,0-1.13-.73-2.38.64-1,1.06-1.42,2.31-.64,3.26C40.27,99.73,42,98.84,42.61,97.78Zm-1.86-.17a2.49,2.49,0,0,0-1,1.18c-.11-.76.21-1.18,1.32-2.05a2.82,2.82,0,0,0,1.17-1.93C42.85,96.24,41.55,97.06,40.75,97.61Z"/><polygon class="cls-6" points="36.72 87.42 38.71 87.71 38.71 88.12 36.51 88.12 36.72 87.42"/><path class="cls-8" d="M36.86,129.19s-2-2.4-1.51-19.5l-.12-9.16,8-2.4L48.7,129Z"/><path class="cls-8" d="M42.92,98.69a5.28,5.28,0,0,1,1.74-2.4A4.37,4.37,0,0,1,47,95.36s-.21-1.24-2.24-1-2.58,1.58-5.09,1l-2.9,5.19Z"/><path class="cls-8" d="M40.27,95.78c-.13-.32-4.27-3.63-4.27-3.63s-2.14.09-1.33,2a1.74,1.74,0,0,0-.81,2.58s-.93.67-.27,2.54a17.13,17.13,0,0,0,1.79,3.55Z"/><path class="cls-8" d="M41.4,114.05l-4.64,11.07A6.28,6.28,0,0,0,40.83,133h0a6.28,6.28,0,0,0,7.87-4l3.71-10.92Z"/><path class="cls-27" d="M37.18,124.22a6,6,0,0,1,.38-1.54c.28-.93.72-2.2,1.28-3.58s1.13-2.6,1.57-3.47a6,6,0,0,1,.8-1.37,8.1,8.1,0,0,1-.56,1.48c-.38.89-.91,2.12-1.47,3.5s-1,2.62-1.38,3.53A8.06,8.06,0,0,1,37.18,124.22Z"/><path class="cls-27" d="M40.45,116c0,.11-.79.22-1.58.77s-1.2,1.24-1.3,1.19a2.76,2.76,0,0,1,2.88-2Z"/><path class="cls-6" d="M60.13,56.8c.46,1.33-1.12,2.46-2.49,2.78s-3,.51-3.67,1.77c-.54,1.09,0,2.48-.48,3.59-1,2.13-4.76,1.68-5.51,3.88-.51,1.51.91,3.07.73,4.65-.15,1.37-1.4,2.3-2.5,3.12s-2.25,2-2.08,3.33c.2,1.58,2.12,2.67,1.95,4.24S43.81,86.44,43.51,88c-.36,1.82,1.92,3,2.65,4.69.56,1.3.21,3,1.16,4s2.68.87,4.1.57l14.14-3c-1-2.24,0-4.86,1.31-6.87s3.18-3.71,4.35-5.84,1.55-5,0-6.87"/><path class="cls-6" d="M85,68.11a14.91,14.91,0,0,0-.46-2.24A2.3,2.3,0,0,0,84,65c-.28-.27-.64-.1-.87.28a6.83,6.83,0,0,0,0,5.73c.23.39.59.55.87.29a2.33,2.33,0,0,0,.57-.92A14.68,14.68,0,0,0,85,68.11a1.62,1.62,0,0,1,0,.62,6.12,6.12,0,0,1-.27,1.7,2.41,2.41,0,0,1-.61,1.06.78.78,0,0,1-.76.18,1.19,1.19,0,0,1-.59-.51,6.93,6.93,0,0,1,0-6.11,1.17,1.17,0,0,1,.59-.5.76.76,0,0,1,.76.17,2.44,2.44,0,0,1,.61,1.07,6,6,0,0,1,.27,1.69A1.66,1.66,0,0,1,85,68.11Z"/><path class="cls-6" d="M61.92,81.13C59.37,76.81,58.63,71.05,58,66.07c-.31-2.35-.84-5.69.81-7.15s1.93-4,4-5.21a6.24,6.24,0,0,1,6.7.08"/><path class="cls-8" d="M69,96.45h0a7,7,0,0,0,7.49-6.63c.15-3.78.29-7.6.29-7.6S82.52,81.7,83,76s.28-18.74.28-18.74h0a19.74,19.74,0,0,0-20,1.23l.29,19.93,0,10.73C63.57,92.78,65.43,96.16,69,96.45Z"/><path class="cls-6" d="M77.32,69.11a2.9,2.9,0,0,0-3.87-.85,3.29,3.29,0,0,0-1.1,4.11,4.3,4.3,0,0,0,2.77,2.11,2.16,2.16,0,0,1,1.69,2.34c-.16,1.43-2.53,2-3.6,3.13-1.67,1.82-5.31,2.59-7.77,2.87s-2.12.3-3.52-1.69a7.62,7.62,0,0,1-1.36-4.6q-.11-6.27-.22-12.53a17.75,17.75,0,0,1,.3-4.49A6,6,0,0,1,63,55.8c1.38-.9,3.12-1,4.69-1.48,2-.63,3.64-1.92,5.48-2.86s4.09-1.49,5.93-.56c1.32.67,2.2,2,3.48,2.73,1.83,1,4.32.82,5.21,3.51a4.65,4.65,0,0,1,0,2.88c-1.26,3.66-5.8,5.13-9.06,3.53-.07.62.54,2-.12,4-.21.62-.29,1.58-1.27,1.59"/><path class="cls-27" d="M76.3,72.64s0,.11-.08.25a.86.86,0,0,1-.63.31,1.56,1.56,0,0,1-1.47-1.57,1.68,1.68,0,0,1,.42-1.19,1.71,1.71,0,0,1,.89-.51c.59-.12.92.1.9.13s-.35,0-.82.14a1.43,1.43,0,0,0-1,1.42,1.32,1.32,0,0,0,1.06,1.3A1.08,1.08,0,0,0,76.3,72.64Z"/><path class="cls-6" d="M85,67.84a21,21,0,0,1-3.81.81,21.06,21.06,0,0,1-3.87.44,21.23,21.23,0,0,1,3.81-.81A21.22,21.22,0,0,1,85,67.84Z"/><path class="cls-6" d="M62.38,86.66a1.65,1.65,0,0,0,2,.79,4.7,4.7,0,0,0,1.9-1.29,5,5,0,0,1,1.89-1.32c1.51-.46,3.36.55,4.63-.39s1-2.78,2.14-3.66c.6-.47,1.44-.53,2.06-1,1.15-.84,1-2.74,0-3.79a7.74,7.74,0,0,0-3.79-1.86L61,79.34Z"/><path class="cls-17" d="M76.84,64.67l-.1.07-.32.18a6.33,6.33,0,0,1-1.34.48,14.68,14.68,0,0,1-2.21.35,23.25,23.25,0,0,0-2.9.4,5.49,5.49,0,0,0-3,1.65c-.82,1-1.13,2.32-1.76,3.64a4.79,4.79,0,0,1-1.42,1.79,7.47,7.47,0,0,1-2.12,1c-1.49.5-3.14.8-4.38,1.86a3.12,3.12,0,0,0-1.13,2,14.3,14.3,0,0,0,0,2.36,3.84,3.84,0,0,1-2.1,3.92c-1.27.75-2.6,1.15-3.67,1.83a4.24,4.24,0,0,0-1.31,1.21A3.14,3.14,0,0,0,48.58,89,10.88,10.88,0,0,0,49,91.86a7.77,7.77,0,0,1,.21,2.24,3.27,3.27,0,0,1-.41,1.36,1.54,1.54,0,0,1-.31.39A3.35,3.35,0,0,0,49,94.09a7.63,7.63,0,0,0-.26-2.18A10.5,10.5,0,0,1,48.32,89a3.46,3.46,0,0,1,.51-1.69A4.71,4.71,0,0,1,50.22,86c1.11-.72,2.44-1.13,3.66-1.86a3.53,3.53,0,0,0,1.91-3.62,14,14,0,0,1,0-2.42A3.53,3.53,0,0,1,57,75.85c1.35-1.14,3.05-1.43,4.51-1.92a7.43,7.43,0,0,0,2-1,4.35,4.35,0,0,0,1.32-1.66c.63-1.26,1-2.67,1.84-3.69a5.68,5.68,0,0,1,3.18-1.7,20.41,20.41,0,0,1,2.94-.35,17,17,0,0,0,2.2-.29A10.08,10.08,0,0,0,76.84,64.67Z"/><path class="cls-17" d="M73.56,66.7a11.47,11.47,0,0,0-1.19.17,5.38,5.38,0,0,0-2.73,1.63,4.83,4.83,0,0,0-1.08,1.9,8.25,8.25,0,0,0-.22,2.54,6.84,6.84,0,0,1-.42,2.91A2.92,2.92,0,0,1,66.85,77a11.83,11.83,0,0,1-1.4.75,3.77,3.77,0,0,0-1.21.86A2.19,2.19,0,0,0,63.76,80a7.15,7.15,0,0,1-.32,2.9,4.89,4.89,0,0,1-1.9,1.88c-.71.42-1.4.73-2,1.09A4.74,4.74,0,0,0,58.15,87a3.13,3.13,0,0,0-.61,1.23,2.93,2.93,0,0,0,0,1.17.84.84,0,0,1-.12-.29,2.13,2.13,0,0,1,0-.91A3.32,3.32,0,0,1,58,86.87a4.94,4.94,0,0,1,1.43-1.26c.6-.38,1.29-.71,2-1.13a4.51,4.51,0,0,0,1.75-1.77,6.85,6.85,0,0,0,.27-2.78A2.56,2.56,0,0,1,64,78.42a4.11,4.11,0,0,1,1.32-1,4.27,4.27,0,0,0,2.31-1.77A6.47,6.47,0,0,0,68,72.94a8.41,8.41,0,0,1,.27-2.63,5.14,5.14,0,0,1,1.18-2,5.29,5.29,0,0,1,2.9-1.59,3.49,3.49,0,0,1,.9-.07C73.45,66.67,73.56,66.68,73.56,66.7Z"/><path class="cls-2" d="M54.08,137.62l4-11.46-2.74-13.9-2.15,6.13-13.25-4.87s8.58-17.16,9-18.06c3.92-8.24,14.38-8.24,14.38-8.24l13.31.35A14.55,14.55,0,0,1,88,92c3.81,3.84,12.5,20.64,12.5,20.64l-14,4.36-2.77-5.18.8,10.93L87.3,139.4Z"/><path class="cls-9" d="M87.53,91.53c0,.1-8.09.18-18.06.18s-18-.08-18-.18,8.08-.19,18-.19S87.53,91.43,87.53,91.53Z"/><path class="cls-6" d="M81.87,91.13s-.37.05-1,.31a4.4,4.4,0,0,0-2,1.81A6,6,0,0,0,78,97.17,15.54,15.54,0,0,0,79.61,102c1.55,3.3,2.91,6.31,3.89,8.5l1.13,2.59a6.07,6.07,0,0,1,.37,1,4.49,4.49,0,0,1-.51-.91l-1.25-2.54c-1-2.15-2.45-5.14-4-8.45a15.24,15.24,0,0,1-1.57-4.94,6.21,6.21,0,0,1,1-4.12,4.42,4.42,0,0,1,2.21-1.8,3,3,0,0,1,.76-.17C81.78,91.11,81.87,91.11,81.87,91.13Z"/><path class="cls-6" d="M58.16,126.79c-.11,0-1.7-7.19-3.56-16.11s-3.28-16.17-3.17-16.19,1.71,7.19,3.56,16.11S58.27,126.76,58.16,126.79Z"/><path class="cls-6" d="M78.16,116a3.72,3.72,0,0,1,0,1,9.09,9.09,0,0,1-.64,2.53,12.34,12.34,0,0,1-5.82,6.21,17.23,17.23,0,0,1-8.4,1.69,20.09,20.09,0,0,1-2.59-.27,3.94,3.94,0,0,1-.93-.22c0-.07,1.35.18,3.53.2a17.86,17.86,0,0,0,8.2-1.76,12.45,12.45,0,0,0,5.74-6A14.43,14.43,0,0,0,78.16,116Z"/><path class="cls-9" d="M92,97.5c0,.1-9.88.18-22.07.18S47.9,97.6,47.9,97.5s9.88-.19,22.07-.19S92,97.4,92,97.5Z"/><path class="cls-9" d="M95.3,103.05c0,.1-11.18.19-25,.19s-25-.09-25-.19,11.18-.18,25-.18S95.3,103,95.3,103.05Z"/><path class="cls-9" d="M97.5,108.14c0,.1-12.28.19-27.42.19s-27.43-.09-27.43-.19S54.93,108,70.08,108,97.5,108,97.5,108.14Z"/><path class="cls-9" d="M54.32,114.36a12.06,12.06,0,0,1-1.9-.52c-1.17-.35-2.78-.83-4.57-1.3s-3.43-.86-4.62-1.13a13,13,0,0,1-1.91-.5,9.06,9.06,0,0,1,2,.24c1.21.21,2.86.55,4.66,1s3.41,1,4.56,1.42A9.32,9.32,0,0,1,54.32,114.36Z"/><path class="cls-9" d="M84.06,113.45a6.12,6.12,0,0,1-1.14,0l-3.08,0-10.17-.11H56.41a6.27,6.27,0,0,1-1.13,0,7.43,7.43,0,0,1,1.13-.1c.73,0,1.78-.08,3.08-.11,2.6-.08,6.2-.14,10.18-.12s7.57.11,10.18.22c1.3,0,2.35.1,3.08.15A7.64,7.64,0,0,1,84.06,113.45Z"/><path class="cls-9" d="M99.61,110.91s.06,0-.07,0l-.43.08-1.59.28c-1.34.23-3.2.53-5.25.84s-3.92.58-5.27.76a14.05,14.05,0,0,1-2.19.21,12.38,12.38,0,0,1,2.15-.47c1.34-.24,3.2-.55,5.26-.86s3.91-.58,5.27-.74c.67-.08,1.22-.13,1.6-.16a3.67,3.67,0,0,1,.45,0s.08,0,.13,0S99.62,110.91,99.61,110.91Z"/><path class="cls-9" d="M77.52,118.38c0,.1-4.69.19-10.49.19s-10.49-.09-10.49-.19,4.7-.18,10.49-.18S77.52,118.28,77.52,118.38Z"/><path class="cls-9" d="M84.31,120.08a17.88,17.88,0,0,1-3.58.18,17.88,17.88,0,0,1-3.58-.18,17.88,17.88,0,0,1,3.58-.18A17.88,17.88,0,0,1,84.31,120.08Z"/><path class="cls-9" d="M72.94,124.54a12.43,12.43,0,0,1-2.21.17c-1.37.05-3.26.06-5.34,0s-4-.16-5.34-.27a11.81,11.81,0,0,1-2.19-.27,15.25,15.25,0,0,1,2.21,0l5.33.16,5.33.09A15.09,15.09,0,0,1,72.94,124.54Z"/><path class="cls-9" d="M84.87,126.05a71.76,71.76,0,0,1-7.19.18,71.76,71.76,0,0,1-7.19-.18,69.84,69.84,0,0,1,7.19-.19A69.84,69.84,0,0,1,84.87,126.05Z"/><path class="cls-9" d="M86,131.26a6.71,6.71,0,0,1-1.16.05H81.64c-2.66,0-6.34-.09-10.4-.22s-7.74-.29-10.4-.46c-1.33-.08-2.41-.16-3.15-.23a8.67,8.67,0,0,1-1.15-.14,5.74,5.74,0,0,1,1.16,0l3.15.11,10.4.35,10.4.33,3.15.13A7.22,7.22,0,0,1,86,131.26Z"/><path class="cls-9" d="M86.94,137.18a10.24,10.24,0,0,1-1.26,0L82.25,137c-2.89-.12-6.89-.33-11.3-.57s-8.41-.49-11.3-.69l-3.42-.25a7,7,0,0,1-1.26-.14,10.17,10.17,0,0,1,1.26,0l3.42.13c2.9.13,6.89.33,11.31.58s8.41.49,11.3.68l3.42.25A7.4,7.4,0,0,1,86.94,137.18Z"/><g class="cls-28"><path d="M59.14,125.9c2.5,1.87,6.18,1.24,9.26.73a13.36,13.36,0,0,0,8.06-4.37,5.42,5.42,0,0,0,1.5-3.81,2.73,2.73,0,0,0-2.75-2.57c-1.59.19-2.36,2-3.13,3.39a12.36,12.36,0,0,1-12.88,6S58.7,125.56,59.14,125.9Z"/></g><g class="cls-28"><path d="M78.16,98.79c.77,6.28,1.79,11.43,3.1,17.62.64,3,1.43,6.22,3.53,8.52L83.58,111Z"/></g><path class="cls-6" d="M60.33,85.68a4.52,4.52,0,0,0-2.1,6.74,2.25,2.25,0,0,1,.58,1.25c-.06,1.12-1.87,1.15-2.44,2.11a1.73,1.73,0,0,0,.49,2,14.05,14.05,0,0,0,1.86,1.25,2.23,2.23,0,0,1,1.14,1.82c.64,0,1-.78.91-1.41A6.14,6.14,0,0,0,60,97.74a1.77,1.77,0,0,1-.08-1.8c.41-.59,1.25-.61,1.92-.87a2.68,2.68,0,0,0,1.42-3.46c-.4-.9-1.35-1.82-.89-2.7.26-.5.85-.68,1.33-1a3.55,3.55,0,0,0,1.78-2.77,3.49,3.49,0,0,0-1.33-3"/><polygon class="cls-8" points="47.49 193.18 43.55 266.22 55.59 269.13 64.62 194.72 47.49 193.18"/><polygon class="cls-10" points="43.19 265.94 41.14 274.96 55 274.96 55.59 269.09 43.19 265.94"/><path class="cls-6" d="M55.28,273.65a10.35,10.35,0,0,1-2,.12c-1.25,0-3,0-4.87-.09l-4.86-.21a12.17,12.17,0,0,1-2-.16,10.07,10.07,0,0,1,2-.11c1.25,0,3,0,4.87.09l4.87.2A12.11,12.11,0,0,1,55.28,273.65Z"/><path class="cls-6" d="M49.41,267.7a11.57,11.57,0,0,1,0,2.92,11.4,11.4,0,0,1-.38,2.9,10.88,10.88,0,0,1,0-2.93A11,11,0,0,1,49.41,267.7Z"/><g class="cls-11"><polyline class="cls-3" points="41.14 274.96 55 274.96 55.13 273.65 41.39 273.31 41.14 274.81"/></g><polygon class="cls-8" points="91.07 249.14 94 271.17 104.66 270.43 102.42 250.23 91.07 249.14"/><path class="cls-10" d="M104.77,268h0s12,4,12.17,6.23l-22.9.66-.21-6,.85.16A17,17,0,0,0,104.77,268Z"/><g class="cls-11"><path class="cls-3" d="M96.51,270a.93.93,0,0,0-.61,1.09.91.91,0,0,0,1.07.62,1,1,0,0,0,.65-1.16.94.94,0,0,0-1.19-.52"/></g><g class="cls-11"><path class="cls-3" d="M94,274.94v-1.86l22,.05s1,.42.94,1.14Z"/></g><path class="cls-6" d="M105.13,267.91c0,.11-.55.18-1.09.55s-.82.86-.93.82,0-.7.71-1.14S105.16,267.81,105.13,267.91Z"/><path class="cls-6" d="M107.57,268.83c0,.11-.45.31-.82.8s-.46,1-.57,1-.2-.63.26-1.22S107.56,268.73,107.57,268.83Z"/><path class="cls-6" d="M109,271.67c-.1,0-.27-.53,0-1.15s.79-.88.84-.79-.27.43-.48.94S109.13,271.65,109,271.67Z"/><path class="cls-6" d="M104.88,267.85a2,2,0,0,1-1.14,0,4.65,4.65,0,0,1-1.21-.34,4.15,4.15,0,0,1-.67-.33,1.24,1.24,0,0,1-.36-.25.52.52,0,0,1-.07-.6.63.63,0,0,1,.49-.27,1.41,1.41,0,0,1,.43.05,3.79,3.79,0,0,1,.72.22,4.08,4.08,0,0,1,1.08.67c.54.47.74.88.7.91s-.32-.31-.87-.7a4.8,4.8,0,0,0-1-.54,4.37,4.37,0,0,0-.67-.19c-.24-.05-.45-.05-.51.06s0,.06,0,.13a2.21,2.21,0,0,0,.26.19l.62.33a6.55,6.55,0,0,0,1.12.39A7.51,7.51,0,0,1,104.88,267.85Z"/><path class="cls-6" d="M104.74,268a1.87,1.87,0,0,1-.33-1.1,3.58,3.58,0,0,1,.12-1.26,3.44,3.44,0,0,1,.27-.71.94.94,0,0,1,.71-.6.55.55,0,0,1,.49.31,1.48,1.48,0,0,1,.13.41,2.58,2.58,0,0,1,0,.78,2.67,2.67,0,0,1-.46,1.2c-.43.6-.89.75-.9.71s.34-.28.67-.86a2.64,2.64,0,0,0,.33-1.09,2.12,2.12,0,0,0,0-.66c0-.24-.14-.44-.23-.41s-.3.19-.39.39a3.85,3.85,0,0,0-.46,1.78C104.67,267.58,104.8,268,104.74,268Z"/><path class="cls-29" d="M54.08,137.62s-8.45,14.12-8.45,22.57l-2.08,102.9,14.62,2.14L68.36,164.67S91.78,266.53,92.57,266.53s12.94-2.18,12.94-2.18L87.08,138.07Z"/><path class="cls-6" d="M77.67,167c0,.1-4.47-.89-9.94-2.22s-9.87-2.51-9.84-2.61,4.47.88,9.94,2.21S77.7,166.84,77.67,167Z"/><path class="cls-6" d="M59.51,163a.86.86,0,0,1,0,.26l-.11.76c-.1.68-.26,1.65-.46,2.9-.41,2.51-1,6.16-1.66,10.67-1.36,9-3.06,21.5-4.48,35.35S50.49,239.31,50,248.41c-.25,4.56-.42,8.24-.53,10.79l-.14,2.93,0,.77a.9.9,0,0,1,0,.26,1.1,1.1,0,0,1,0-.27v-.76l.07-2.94c.06-2.55.2-6.23.41-10.79.43-9.11,1.26-21.7,2.68-35.55S55.56,186.51,57,177.5c.71-4.51,1.33-8.15,1.78-10.66.23-1.24.41-2.2.53-2.89l.15-.75A.83.83,0,0,1,59.51,163Z"/><path class="cls-6" d="M80.65,164.65c.1,0,4.18,22.57,9.1,50.44s8.84,50.48,8.74,50.5-4.17-22.56-9.1-50.44S80.55,164.67,80.65,164.65Z"/><path class="cls-17" d="M44.34,79.57a3.13,3.13,0,0,1,.52.62,8.33,8.33,0,0,1,1.07,1.93,3.92,3.92,0,0,1,.25,1.54,3.35,3.35,0,0,1-.59,1.69c-.35.52-.79,1-1.19,1.51a3.12,3.12,0,0,0-.74,1.76,3.5,3.5,0,0,0,.54,1.85A15.73,15.73,0,0,0,45.27,92a7.43,7.43,0,0,1,.89,1.52,4.12,4.12,0,0,1,.29,1.52,5.31,5.31,0,0,0,.11,1.21A1.71,1.71,0,0,0,47,97a1.44,1.44,0,0,0,.67.36s-.33.11-.77-.25a2,2,0,0,1-.53-.82,5.24,5.24,0,0,1-.17-1.25,3.72,3.72,0,0,0-.31-1.42A7.74,7.74,0,0,0,45,92.22a14.59,14.59,0,0,1-1.12-1.58,3.87,3.87,0,0,1-.59-2,3.49,3.49,0,0,1,.83-2c.41-.53.86-1,1.19-1.48a3.19,3.19,0,0,0,.37-3,9.24,9.24,0,0,0-.94-1.94A3.89,3.89,0,0,1,44.34,79.57Z"/><rect class="cls-6" x="446.78" y="240.5" width="40.89" height="5.62"/><path class="cls-6" d="M487.74,246.19h-41v-5.76h41Zm-40.89-.14H487.6v-5.48H446.85Z"/><polygon class="cls-6" points="450.58 244.25 456.46 273.28 478.24 273.28 483.93 246.12 450.58 244.25"/><polygon class="cls-6" points="450.58 270.54 453.71 274.85 480.18 274.85 483.93 270.54 450.58 270.54"/><path class="cls-6" d="M465.69,245.1c-.08,0-.18-13.45-.23-30s0-30,.06-30,.19,13.44.23,30S465.77,245.1,465.69,245.1Z"/><path class="cls-6" d="M474.8,211.44a1.52,1.52,0,0,1-.11.31l-.36.87-.27.63c-.09.23-.18.49-.27.76l-.32.88c-.11.31-.19.65-.3,1a39.59,39.59,0,0,0-1.14,5,59.54,59.54,0,0,0-.64,6.26,84.1,84.1,0,0,0,.33,11.44c.13,1.46.26,2.64.36,3.45l.1.94a1.63,1.63,0,0,1,0,.33,1.29,1.29,0,0,1-.08-.32c0-.25-.09-.55-.16-.93-.13-.81-.29-2-.45-3.45a75.59,75.59,0,0,1-.41-11.47,57.37,57.37,0,0,1,.66-6.29,38.7,38.7,0,0,1,1.21-5c.12-.35.21-.69.33-1s.23-.6.33-.88l.3-.76.29-.61.42-.86C474.74,211.53,474.79,211.43,474.8,211.44Z"/><path class="cls-6" d="M473.75,200.56a2,2,0,0,1-.13.44c-.1.31-.24.73-.42,1.25-.1.28-.2.58-.31.9s-.22.7-.33,1.09c-.24.78-.52,1.66-.77,2.66-.13.49-.26,1-.41,1.55s-.25,1.12-.38,1.7c-.28,1.17-.49,2.45-.75,3.77-.45,2.68-.85,5.63-1.13,8.74s-.37,6.1-.41,8.81,0,5.15.14,7.2c0,1,.1,2,.16,2.76s.09,1.52.15,2.09.07,1,.1,1.32a2.29,2.29,0,0,1,0,.46,3.57,3.57,0,0,1-.07-.46c0-.32-.09-.76-.16-1.31s-.13-1.27-.2-2.08-.14-1.74-.19-2.77c-.14-2.05-.2-4.49-.2-7.21s.13-5.7.38-8.83.69-6.08,1.15-8.76c.27-1.33.49-2.61.79-3.78.13-.59.27-1.15.4-1.7l.43-1.56c.26-1,.55-1.87.8-2.65.13-.39.25-.75.35-1.08s.24-.62.34-.9l.48-1.23C473.68,200.7,473.75,200.56,473.75,200.56Z"/><path class="cls-6" d="M463.11,247.48s0-.06,0-.16,0-.27,0-.46c0-.43-.06-1-.12-1.78-.09-1.57-.23-3.81-.41-6.56-.35-5.53-.86-13.17-1.79-21.57-.48-4.2-1-8.19-1.6-11.81-.31-1.81-.59-3.52-.9-5.12s-.6-3.09-.88-4.45-.57-2.57-.81-3.65-.47-2-.66-2.74l-.42-1.74c-.05-.18-.08-.33-.11-.45s0-.15,0-.15a.57.57,0,0,1,.05.14c0,.12.08.27.13.45.12.41.28,1,.48,1.72s.45,1.66.71,2.74.57,2.28.85,3.64.62,2.84.92,4.44.61,3.32.92,5.13c.59,3.62,1.15,7.61,1.62,11.82.94,8.41,1.42,16.06,1.72,21.59.15,2.77.25,5,.32,6.56,0,.76,0,1.35.06,1.78,0,.19,0,.35,0,.47Z"/><path class="cls-30" d="M465.36,191.48a4.06,4.06,0,0,0-4-3.36,6.34,6.34,0,0,0-4.87,2.64,15.29,15.29,0,0,0-2.34,5.2,35.36,35.36,0,0,0-1.44,13.85,20.93,20.93,0,0,0,5.76,12.48,2.39,2.39,0,0,0,2,.91,2.41,2.41,0,0,0,1.05-.65,31,31,0,0,0,10-23.56,9.54,9.54,0,0,0-1.26-5.07c-1-1.47-3.25-3-4.91-2.44"/><path class="cls-30" d="M451.07,176.22l-2.7,4.88c-.06.11-.14.24-.27.25s-.25-.12-.33-.24l-7.12-10.93,1.64-.94Z"/><g class="cls-28"><path d="M451.07,176.22l-2.7,4.88c-.06.11-.14.24-.27.25s-.25-.12-.33-.24l-7.12-10.93,1.64-.94Z"/></g><path class="cls-30" d="M465.52,185l-24.3-14.35a1.14,1.14,0,0,1-.6-.6c-.09-.36.18-.7.44-1a16.72,16.72,0,0,1,13-5.1,14.83,14.83,0,0,1,11.74,7.3,13.39,13.39,0,0,1-.27,13.72"/><path class="cls-6" d="M444.72,166.09l.32,0c.21,0,.52-.05.92,0a17.85,17.85,0,0,1,3.37.27,19.36,19.36,0,0,1,4.8,1.46,19.71,19.71,0,0,1,10.93,12.77,18,18,0,0,1,.6,3.33c0,.4,0,.71,0,.92a1,1,0,0,1,0,.32s-.05-.44-.15-1.23a20,20,0,0,0-.69-3.28,19.86,19.86,0,0,0-15.57-14.09,21.08,21.08,0,0,0-3.34-.36A9.89,9.89,0,0,1,444.72,166.09Z"/><path class="cls-6" d="M462.23,175.12a5.93,5.93,0,0,1-1.23.55c-.77.31-1.85.7-3.06,1.08s-2.32.69-3.13.89a5.49,5.49,0,0,1-1.33.25,6.92,6.92,0,0,1,1.27-.45l3.1-1,3.08-1A6.08,6.08,0,0,1,462.23,175.12Z"/><path class="cls-6" d="M458.41,164.83a10.67,10.67,0,0,1,.28,2.71,10.26,10.26,0,0,1-.15,2.73,17.7,17.7,0,0,1-.14-2.72A15.21,15.21,0,0,1,458.41,164.83Z"/><path class="cls-6" d="M441,170.4a10.61,10.61,0,0,1,1.77-.62c1.1-.34,2.64-.77,4.36-1.19s3.28-.73,4.41-.93a10.62,10.62,0,0,1,1.86-.25,14,14,0,0,1-1.82.46c-1.12.25-2.68.59-4.39,1s-3.25.81-4.37,1.1A12.37,12.37,0,0,1,441,170.4Z"/><path class="cls-30" d="M454.31,187a10,10,0,0,0-6.92-1.79,21.08,21.08,0,0,0-7.57,1.95,23.39,23.39,0,0,0-10.41,8.19c-2.44,3.74-3.3,8.7-1.46,12.78a1.79,1.79,0,0,0,.83,1,2,2,0,0,0,1.37-.1,76.68,76.68,0,0,0,13.64-5.44,25.71,25.71,0,0,0,10.49-10,8.67,8.67,0,0,0,1.1-3.33,4.13,4.13,0,0,0-1.07-3.25"/><path class="cls-6" d="M454.36,186.48a1.85,1.85,0,0,1-.34.14l-1,.33-.7.24c-.26.09-.53.21-.83.32-.59.24-1.27.48-2,.83l-1.14.52c-.39.18-.79.41-1.21.62-.84.41-1.7.94-2.61,1.48a44.34,44.34,0,0,0-5.52,4.1,43.66,43.66,0,0,0-4.76,4.95c-.65.83-1.29,1.62-1.81,2.4-.26.39-.54.75-.77,1.12L431,204.6c-.44.67-.76,1.32-1.08,1.87-.15.28-.3.54-.42.78l-.32.67-.46.93a2.21,2.21,0,0,1-.18.32,1.23,1.23,0,0,1,.13-.34l.4-1c.1-.21.2-.44.31-.69s.26-.51.4-.79c.3-.57.61-1.22,1-1.91.21-.34.43-.7.65-1.08s.5-.74.76-1.14c.52-.79,1.15-1.58,1.8-2.43a42.52,42.52,0,0,1,4.78-5,43.12,43.12,0,0,1,5.57-4.11c.92-.53,1.78-1.06,2.64-1.47.42-.21.82-.43,1.23-.61l1.15-.5c.73-.34,1.43-.57,2-.79.3-.11.58-.22.84-.3l.72-.22,1-.28A1.72,1.72,0,0,1,454.36,186.48Z"/><path class="cls-6" d="M438,195.32a97.06,97.06,0,0,1-10.25,3,48.43,48.43,0,0,1,5.09-1.64A51.07,51.07,0,0,1,438,195.32Z"/><path class="cls-6" d="M437.81,206.55a8.63,8.63,0,0,1-.11-1.59c0-1,0-2.33,0-3.83s.12-2.84.21-3.82a8,8,0,0,1,.2-1.58,9.54,9.54,0,0,1,0,1.59c0,1.07-.07,2.38-.12,3.82s-.06,2.75-.09,3.82A8.21,8.21,0,0,1,437.81,206.55Z"/><path class="cls-6" d="M447.43,201.65c-.08,0-.34-2.75-.57-6.15s-.36-6.16-.28-6.16.33,2.74.57,6.14S447.51,201.64,447.43,201.65Z"/><path class="cls-6" d="M435.46,189.07a8.7,8.7,0,0,1,1.63,0c1,0,2.39,0,3.93.09s2.91.11,3.92.17a8.91,8.91,0,0,1,1.62.16,9.83,9.83,0,0,1-1.63.05c-1,0-2.39,0-3.92-.09s-2.92-.11-3.93-.17A8.91,8.91,0,0,1,435.46,189.07Z"/><path class="cls-6" d="M459.49,223.6a1.5,1.5,0,0,1,0-.33c0-.25,0-.57,0-1,0-.83,0-2,0-3.52s.12-3.25.3-5.2.46-4.1.86-6.33.88-4.34,1.38-6.24,1-3.59,1.52-5,.9-2.53,1.22-3.3c.15-.36.28-.65.37-.88a1.62,1.62,0,0,1,.15-.3,1.37,1.37,0,0,1-.09.32c-.09.24-.19.54-.32.9-.29.78-.68,1.91-1.14,3.32s-1,3.1-1.45,5-1,4-1.36,6.22-.67,4.36-.87,6.3-.31,3.71-.36,5.19-.08,2.68-.08,3.51c0,.39,0,.7,0,.95A1.55,1.55,0,0,1,459.49,223.6Z"/><path class="cls-6" d="M460.77,207a6.39,6.39,0,0,1-1,1.07c-.63.62-1.52,1.47-2.54,2.36s-2,1.67-2.67,2.21a7.28,7.28,0,0,1-1.18.82,7.17,7.17,0,0,1,1-1l2.61-2.27,2.59-2.29A7.92,7.92,0,0,1,460.77,207Z"/><path class="cls-6" d="M468.47,213.21a11.42,11.42,0,0,1-1-1.43l-2.4-3.51-2.45-3.47a11.83,11.83,0,0,1-1-1.46,9.44,9.44,0,0,1,1.15,1.34c.67.86,1.57,2.06,2.52,3.43s1.77,2.63,2.34,3.56A10.2,10.2,0,0,1,468.47,213.21Z"/><path class="cls-6" d="M464.44,193.72c0,.07-2.52,1.79-5.71,3.84s-5.82,3.67-5.87,3.6,2.51-1.79,5.71-3.84S464.39,193.65,464.44,193.72Z"/><path class="cls-6" d="M471.64,201.5a50.39,50.39,0,0,1-3.86-3.58,45.82,45.82,0,0,1-3.66-3.78c.05,0,1.78,1.55,3.86,3.58A45.82,45.82,0,0,1,471.64,201.5Z"/><path class="cls-30" d="M473.46,201.34l2.19-.18a10.8,10.8,0,0,0,4.43-1.36,16,16,0,0,1,2.07-1c2.71-1.09,5.74-.9,8.65-1a35.87,35.87,0,0,0,13.78-3.53,1.31,1.31,0,0,0,.6-.54c.45-.82-.39-1.55-1.11-2-3.69-2.28-7.46-4.58-11.65-5.71s-8.95-.94-12.53,1.52c-4.19,2.89-5.72,8.82-6.43,13.87"/><path class="cls-6" d="M505.23,193.39a1.92,1.92,0,0,1-.37-.17l-1-.55c-.91-.47-2.2-1.17-3.84-2a35.85,35.85,0,0,0-6-2.29,19.68,19.68,0,0,0-7.71-.63,13.2,13.2,0,0,0-7,3,15.63,15.63,0,0,0-3.66,5.14,40.85,40.85,0,0,0-1.59,4l-.39,1.11a1.89,1.89,0,0,1-.16.38s0-.14.1-.4l.34-1.13a36.43,36.43,0,0,1,1.51-4,15.73,15.73,0,0,1,3.67-5.25,13.24,13.24,0,0,1,7.17-3.1,19.59,19.59,0,0,1,7.81.65,35.35,35.35,0,0,1,6,2.36c1.63.82,2.92,1.55,3.8,2l1,.59A2.58,2.58,0,0,1,505.23,193.39Z"/><path class="cls-6" d="M500,196.22c0,.07-2.92-1.79-6.41-4.15s-6.29-4.32-6.25-4.38,2.92,1.79,6.41,4.14S500,196.15,500,196.22Z"/><path class="cls-6" d="M497.2,187.41a6.53,6.53,0,0,1-2.24.45,6.69,6.69,0,0,1-2.28,0,51.76,51.76,0,0,1,4.52-.42Z"/><path class="cls-6" d="M484.34,185.11a8.1,8.1,0,0,1-.94,1.88,7.47,7.47,0,0,1-1.2,1.73,7.64,7.64,0,0,1,.94-1.88A7.47,7.47,0,0,1,484.34,185.11Z"/><path class="cls-6" d="M486.91,197.91a8.23,8.23,0,0,1-1.38-.75c-.83-.5-1.95-1.24-3.15-2.11s-2.25-1.69-3-2.29a7.92,7.92,0,0,1-1.19-1,8.43,8.43,0,0,1,1.31.85l3.06,2.23c1.19.86,2.29,1.62,3.09,2.17A8.53,8.53,0,0,1,486.91,197.91Z"/><path class="cls-30" d="M476.69,210.66c-2.1-.55-4.59,1.49-5,3.61s.36,4.29,1.29,6.24a31.83,31.83,0,0,0,8.66,11.32,21.39,21.39,0,0,0,13.23,4.88c-.88-4.11.23-8.41-.26-12.58a16.37,16.37,0,0,0-14.49-14.35c-1.33-.14-2.88-.35-3.41.88"/><path class="cls-6" d="M494.85,236.71a2.72,2.72,0,0,1-.3-.14,5.69,5.69,0,0,1-.78-.53,8.2,8.2,0,0,1-2.07-2.76c-.33-.65-.7-1.35-1.07-2.13l-1.12-2.49a23.42,23.42,0,0,0-1.39-2.66,20.67,20.67,0,0,0-1.9-2.59c-1.43-1.68-3-3.14-4.3-4.53a29.26,29.26,0,0,1-3.28-3.94,14.37,14.37,0,0,1-1.61-3.06c-.13-.38-.23-.69-.28-.9a1.18,1.18,0,0,1-.06-.32s.14.43.45,1.18a15.49,15.49,0,0,0,1.67,3,30.66,30.66,0,0,0,3.3,3.86c1.34,1.38,2.88,2.83,4.33,4.53a21.31,21.31,0,0,1,1.93,2.63,23,23,0,0,1,1.38,2.7c.39.88.76,1.71,1.1,2.5s.72,1.48,1,2.13a8.36,8.36,0,0,0,1.95,2.77C494.45,236.48,494.87,236.68,494.85,236.71Z"/><path class="cls-6" d="M484,233.29a6.32,6.32,0,0,1,.19-1.41c.16-.86.43-2,.8-3.33s.75-2.44,1.06-3.26a5.88,5.88,0,0,1,.57-1.3,7.88,7.88,0,0,1-.38,1.37c-.26.83-.61,2-1,3.27s-.66,2.45-.88,3.3A7.46,7.46,0,0,1,484,233.29Z"/><path class="cls-6" d="M494.45,223.2a8.28,8.28,0,0,1-1.47-.34c-.9-.23-2.15-.55-3.53-.87s-2.65-.55-3.57-.72a9.18,9.18,0,0,1-1.47-.33,6.91,6.91,0,0,1,1.5.12c.93.13,2.21.34,3.6.65s2.64.67,3.53,1A6.88,6.88,0,0,1,494.45,223.2Z"/><path class="cls-6" d="M476.26,226.13a8.06,8.06,0,0,1,.23-1.63c.18-1,.48-2.37.87-3.87s.8-2.84,1.13-3.8a8.81,8.81,0,0,1,.6-1.54,9.25,9.25,0,0,1-.4,1.6c-.28,1-.66,2.32-1.05,3.81s-.71,2.86-.95,3.85A9.21,9.21,0,0,1,476.26,226.13Z"/><path class="cls-6" d="M489.65,214.41c0,.08-2.62-.13-5.83-.47s-5.82-.68-5.81-.76,2.62.13,5.84.47S489.66,214.33,489.65,214.41Z"/><path class="cls-17" d="M487.74,246.1c0,.08-9.19.14-20.51.14s-20.51-.06-20.51-.14,9.18-.15,20.51-.15S487.74,246,487.74,246.1Z"/><path class="cls-17" d="M481.35,257.91c0,.08-6.19.15-13.82.15s-13.82-.07-13.82-.15,6.19-.14,13.82-.14S481.35,257.83,481.35,257.91Z"/><path class="cls-17" d="M481.59,259.6c0,.08-6.19.15-13.82.15S454,259.68,454,259.6s6.19-.14,13.82-.14S481.59,259.52,481.59,259.6Z"/><path class="cls-17" d="M481.59,256.52c0,.08-6.4.15-14.29.15s-14.3-.07-14.3-.15,6.4-.14,14.3-.14S481.59,256.44,481.59,256.52Z"/></g></g></svg>