<svg xmlns="http://www.w3.org/2000/svg" xmlns:xlink="http://www.w3.org/1999/xlink" viewBox="0 0 80 75.68"><defs><style>.cls-1{fill:url(#Degradado_sin_nombre_7);}.cls-2{fill:url(#Degradado_sin_nombre_7-2);}</style><linearGradient id="Degradado_sin_nombre_7" x1="58.28" y1="30.83" x2="26.18" y2="86.43" gradientUnits="userSpaceOnUse"><stop offset="0.21" stop-color="#00e1ff"/><stop offset="0.67" stop-color="#15c5ed"/><stop offset="0.76" stop-color="#2ea4d8"/><stop offset="0.85" stop-color="#408dc8"/><stop offset="0.93" stop-color="#4a7fbf"/><stop offset="1" stop-color="#4e7abc"/></linearGradient><linearGradient id="Degradado_sin_nombre_7-2" x1="46.94" y1="-1.06" x2="31.91" y2="24.97" xlink:href="#Degradado_sin_nombre_7"/></defs><g id="Capa_2" data-name="Capa 2"><g id="Capa_1-2" data-name="Capa 1"><path class="cls-1" d="M73.78,54.52A8.16,8.16,0,0,0,75.13,50a7,7,0,0,0-7.24-7.16,7.36,7.36,0,0,0-4.69,1.62,13.16,13.16,0,0,0-3.38-3.28,8.27,8.27,0,0,0,1.35-4.53,6.93,6.93,0,0,0-7.24-7.12,6.93,6.93,0,0,0-7.21,7.12,8.36,8.36,0,0,0,1.37,4.57,12.42,12.42,0,0,0-3.39,3.24,7.69,7.69,0,0,0-9.39,0,13.08,13.08,0,0,0-3.4-3.24,8.2,8.2,0,0,0,1.36-4.53,6.93,6.93,0,0,0-7.22-7.12,6.93,6.93,0,0,0-7.23,7.12,8.13,8.13,0,0,0,1.37,4.53,13,13,0,0,0-3.39,3.28,7.4,7.4,0,0,0-4.71-1.62A7,7,0,0,0,4.87,50a8.24,8.24,0,0,0,1.34,4.49A14.22,14.22,0,0,0,0,65.86c0,6.08,4.62,9.82,12.09,9.82s12.09-3.74,12.09-9.82a12.26,12.26,0,0,0-.61-3.71,17.59,17.59,0,0,0,2.48.22,17.53,17.53,0,0,0,2.45-.18,12.32,12.32,0,0,0-.61,3.67c0,6.08,4.63,9.82,12.1,9.82s12.09-3.74,12.09-9.82a13.11,13.11,0,0,0-.59-3.71,12.73,12.73,0,0,0,2.44.22,18,18,0,0,0,2.49-.18,12.32,12.32,0,0,0-.61,3.67c0,6.08,4.63,9.82,12.08,9.82S80,71.94,80,65.86A14.21,14.21,0,0,0,73.78,54.52Zm-5.89-9.21A4.56,4.56,0,0,1,72.7,50a5.12,5.12,0,0,1-4.81,5.36c-2.62,0-4.78-2.41-4.78-5.36A4.55,4.55,0,0,1,67.89,45.31ZM53.93,32a4.55,4.55,0,0,1,4.81,4.71A5.08,5.08,0,0,1,53.93,42a5.09,5.09,0,0,1-4.78-5.36A4.55,4.55,0,0,1,53.93,32ZM40,45.31A4.55,4.55,0,0,1,44.78,50,5.11,5.11,0,0,1,40,55.39,5.12,5.12,0,0,1,35.19,50,4.56,4.56,0,0,1,40,45.31ZM26.05,32a4.54,4.54,0,0,1,4.78,4.71A5.08,5.08,0,0,1,26.05,42a5.09,5.09,0,0,1-4.8-5.36A4.56,4.56,0,0,1,26.05,32Zm-14,13.34A4.56,4.56,0,0,1,16.89,50a5.12,5.12,0,0,1-4.8,5.36A5.12,5.12,0,0,1,7.29,50,4.56,4.56,0,0,1,12.09,45.31Zm0,28c-2.27,0-9.68-.54-9.68-7.41a11.59,11.59,0,0,1,5.45-9.54,6.81,6.81,0,0,0,4.23,1.51,7,7,0,0,0,4.21-1.47,11.49,11.49,0,0,1,5.47,9.5C21.77,72.73,14.36,73.27,12.09,73.27ZM26.05,60a17.78,17.78,0,0,1-3.6-.44,14,14,0,0,0-4.5-5A8.21,8.21,0,0,0,19.3,50a7.32,7.32,0,0,0-.92-3.67A10.35,10.35,0,0,1,21.84,43a6.7,6.7,0,0,0,8.4,0,10.78,10.78,0,0,1,3.47,3.35A7.22,7.22,0,0,0,32.78,50a8.07,8.07,0,0,0,1.37,4.53,13.94,13.94,0,0,0-4.54,5A17.3,17.3,0,0,1,26.05,60ZM40,73.27c-2.27,0-9.68-.54-9.68-7.41a11.49,11.49,0,0,1,5.47-9.5A7,7,0,0,0,40,57.83a6.9,6.9,0,0,0,4.19-1.47,11.47,11.47,0,0,1,5.47,9.5C49.65,72.73,42.26,73.27,40,73.27ZM53.93,60a15.8,15.8,0,0,1-3.56-.47,14.24,14.24,0,0,0-4.51-5A8.16,8.16,0,0,0,47.21,50a7.44,7.44,0,0,0-.94-3.67A10.66,10.66,0,0,1,49.74,43a6.67,6.67,0,0,0,4.19,1.48A7.11,7.11,0,0,0,58.18,43a10.57,10.57,0,0,1,3.44,3.35A7.33,7.33,0,0,0,60.68,50a8.13,8.13,0,0,0,1.37,4.53,14.07,14.07,0,0,0-4.52,5A15,15,0,0,1,53.93,60Zm14,13.31c-2.26,0-9.66-.54-9.66-7.41a11.49,11.49,0,0,1,5.47-9.5,6.73,6.73,0,0,0,8.4,0,11.49,11.49,0,0,1,5.47,9.5C77.57,72.73,70.16,73.27,67.89,73.27Z"/><path class="cls-2" d="M35.51,25.13,43.66,31a1.31,1.31,0,0,0,.7.26,1.45,1.45,0,0,0,.56-.15A1.2,1.2,0,0,0,45.59,30V24.16c5.72-1.91,9.37-6,9.37-10.51,0-3.89-2.74-7.34-6.91-9.46l1.42-2.38A1.21,1.21,0,0,0,49.06.16a1.25,1.25,0,0,0-1.67.43L45.8,3.25A22,22,0,0,0,38.45,2C29.32,2,21.91,7.25,21.91,13.65,21.91,19.37,27.61,24.12,35.51,25.13ZM38.45,4.44a20.78,20.78,0,0,1,6.09.9L38.41,15.63,34.58,11a1.19,1.19,0,0,0-1.71-.18,1.23,1.23,0,0,0-.16,1.73l4.92,6a1.19,1.19,0,0,0,.94.43h.09a1.23,1.23,0,0,0,1-.58L46.83,6.28c3.45,1.65,5.72,4.35,5.72,7.37,0,3.67-3.35,7-8.51,8.46a1.2,1.2,0,0,0-.88,1.18v4.36L36.68,23a.89.89,0,0,0-.57-.21C29.4,22,24.34,18.08,24.34,13.65,24.34,8.58,30.66,4.44,38.45,4.44Z"/></g></g></svg>