<svg xmlns="http://www.w3.org/2000/svg" xmlns:xlink="http://www.w3.org/1999/xlink" viewBox="0 0 80 60.59"><defs><style>.cls-1{fill:url(#Degradado_sin_nombre_7);}.cls-2{fill:url(#Degradado_sin_nombre_7-2);}.cls-3{fill:url(#Degradado_sin_nombre_7-3);}.cls-4{fill:url(#Degradado_sin_nombre_7-4);}.cls-5{fill:url(#Degradado_sin_nombre_7-5);}</style><linearGradient id="Degradado_sin_nombre_7" x1="50.3" y1="-16.64" x2="29.7" y2="19.04" gradientUnits="userSpaceOnUse"><stop offset="0.21" stop-color="#00e1ff"/><stop offset="0.67" stop-color="#15c5ed"/><stop offset="0.76" stop-color="#2ea4d8"/><stop offset="0.85" stop-color="#408dc8"/><stop offset="0.93" stop-color="#4a7fbf"/><stop offset="1" stop-color="#4e7abc"/></linearGradient><linearGradient id="Degradado_sin_nombre_7-2" x1="50.3" y1="41.55" x2="29.7" y2="77.23" xlink:href="#Degradado_sin_nombre_7"/><linearGradient id="Degradado_sin_nombre_7-3" x1="59.37" y1="-3.26" x2="20.63" y2="63.84" xlink:href="#Degradado_sin_nombre_7"/><linearGradient id="Degradado_sin_nombre_7-4" x1="54.97" y1="5.17" x2="25.24" y2="56.66" xlink:href="#Degradado_sin_nombre_7"/><linearGradient id="Degradado_sin_nombre_7-5" x1="27.86" y1="7.82" x2="15.38" y2="29.43" xlink:href="#Degradado_sin_nombre_7"/></defs><g id="Capa_2" data-name="Capa 2"><g id="Capa_1-2" data-name="Capa 1"><path class="cls-1" d="M1.2,2.41H78.78a1.21,1.21,0,1,0,0-2.41H1.2a1.21,1.21,0,0,0,0,2.41Z"/><path class="cls-2" d="M80,59.4a1.21,1.21,0,0,1-1.22,1.19H1.21a1.21,1.21,0,1,1,0-2.41H78.78A1.21,1.21,0,0,1,80,59.4Z"/><path class="cls-3" d="M75.14,6H4.84A1.21,1.21,0,0,0,3.63,7.27V53.32a1.21,1.21,0,0,0,1.21,1.22h70.3a1.21,1.21,0,0,0,1.22-1.22v-46A1.21,1.21,0,0,0,75.14,6ZM73.93,52.09H6.06V8.49H73.93Z"/><path class="cls-4" d="M68.75,13.13a1.24,1.24,0,0,0-1.69.33L58.53,26.12a4.78,4.78,0,0,0-1.74-.36,4.56,4.56,0,0,0-3.94,2.34l-4.66-1.8a4.54,4.54,0,0,0-1.33-3.23,4.48,4.48,0,0,0-3.2-1.34,4.53,4.53,0,0,0-3.83,7l-5.71,7.2a4.09,4.09,0,0,0-1.88-.43A4.49,4.49,0,0,0,29,36.81l-1.73-1.19a5.14,5.14,0,0,0,.09-.87,4.55,4.55,0,0,0-9.09,0,4.43,4.43,0,0,0,.49,2L9.82,46a1.24,1.24,0,0,0,0,1.73,1.26,1.26,0,0,0,.84.32,1.19,1.19,0,0,0,.87-.36L20.4,38.6a4.78,4.78,0,0,0,2.45.72,4.6,4.6,0,0,0,3.36-1.51l1.64,1.12A4.46,4.46,0,0,0,27.7,40,4.55,4.55,0,1,0,36,37.46l5.64-7.13a4.72,4.72,0,0,0,2,.5,4.57,4.57,0,0,0,3.87-2.19l4.73,1.83a4.54,4.54,0,1,0,8.16-2.84l8.66-12.84A1.19,1.19,0,0,0,68.75,13.13ZM22.85,36.88a2.12,2.12,0,0,1-2.12-2.13,2.12,2.12,0,1,1,2.12,2.13Zm9.39,5.25A2.12,2.12,0,1,1,34.36,40,2.11,2.11,0,0,1,32.24,42.13ZM43.66,28.39a2.11,2.11,0,0,1-2.12-2.09,2.13,2.13,0,1,1,4.25,0A2.12,2.12,0,0,1,43.66,28.39Zm13.13,4.06a2.13,2.13,0,0,1-2.12-2.12,2.12,2.12,0,1,1,4.24,0A2.13,2.13,0,0,1,56.79,32.45Z"/><path class="cls-5" d="M35,12.13H10.9a1.17,1.17,0,0,0-1.2,1.18V25.44a1.21,1.21,0,0,0,1.2,1.22H29.59a1.21,1.21,0,0,0,1.21-1.22V20.61H35a1.23,1.23,0,0,0,1.21-1.22V13.31A1.18,1.18,0,0,0,35,12.13ZM28.39,24.21H12.13v-3.6H28.39Zm5.36-6H12.13V14.54H33.75Z"/></g></g></svg>