<svg xmlns="http://www.w3.org/2000/svg" xmlns:xlink="http://www.w3.org/1999/xlink" viewBox="0 0 80 80.14"><defs><style>.cls-1{fill:url(#Degradado_sin_nombre_7);}.cls-2{fill:url(#Degradado_sin_nombre_7-2);}.cls-3{fill:url(#Degradado_sin_nombre_7-3);}.cls-4{fill:url(#Degradado_sin_nombre_7-4);}.cls-5{fill:url(#Degradado_sin_nombre_7-5);}.cls-6{fill:url(#Degradado_sin_nombre_7-6);}.cls-7{fill:url(#Degradado_sin_nombre_7-7);}</style><linearGradient id="Degradado_sin_nombre_7" x1="65.95" y1="-7.6" x2="14.05" y2="82.3" gradientUnits="userSpaceOnUse"><stop offset="0.21" stop-color="#00e1ff"/><stop offset="0.67" stop-color="#15c5ed"/><stop offset="0.76" stop-color="#2ea4d8"/><stop offset="0.85" stop-color="#408dc8"/><stop offset="0.93" stop-color="#4a7fbf"/><stop offset="1" stop-color="#4e7abc"/></linearGradient><linearGradient id="Degradado_sin_nombre_7-2" x1="73.02" y1="6.23" x2="71.81" y2="8.33" xlink:href="#Degradado_sin_nombre_7"/><linearGradient id="Degradado_sin_nombre_7-3" x1="66.36" y1="6.22" x2="65.14" y2="8.34" xlink:href="#Degradado_sin_nombre_7"/><linearGradient id="Degradado_sin_nombre_7-4" x1="59.69" y1="6.23" x2="58.48" y2="8.33" xlink:href="#Degradado_sin_nombre_7"/><linearGradient id="Degradado_sin_nombre_7-5" x1="53.34" y1="36.9" x2="33.85" y2="70.67" xlink:href="#Degradado_sin_nombre_7"/><linearGradient id="Degradado_sin_nombre_7-6" x1="39.73" y1="37.71" x2="27.37" y2="59.11" xlink:href="#Degradado_sin_nombre_7"/><linearGradient id="Degradado_sin_nombre_7-7" x1="59.28" y1="22.19" x2="41.97" y2="52.17" xlink:href="#Degradado_sin_nombre_7"/></defs><g id="Capa_2" data-name="Capa 2"><g id="Capa_1-2" data-name="Capa 1"><path class="cls-1" d="M78.77,0H1.21A1.21,1.21,0,0,0,0,1.23V73.48A1.21,1.21,0,0,0,1.21,74.7H45.78a1.21,1.21,0,1,0,0-2.42H2.43V14.56H77.57V72.28H75.15a1.21,1.21,0,1,0,0,2.42h3.62A1.21,1.21,0,0,0,80,73.48V1.23A1.22,1.22,0,0,0,78.77,0ZM2.43,12.14V2.45H77.57v9.69Z"/><path class="cls-2" d="M71.57,6.41a1.17,1.17,0,0,0-.36.87,1.21,1.21,0,0,0,.36.86,1.18,1.18,0,0,0,.84.36,1.29,1.29,0,0,0,.87-.36,1.27,1.27,0,0,0,.36-.86,1.3,1.3,0,0,0-.36-.87A1.29,1.29,0,0,0,71.57,6.41Z"/><path class="cls-3" d="M65.75,6.05A1.23,1.23,0,1,0,67,7.28,1.21,1.21,0,0,0,65.75,6.05Z"/><path class="cls-4" d="M58.23,6.41a1.21,1.21,0,0,0-.36.87,1.19,1.19,0,0,0,.36.86,1.22,1.22,0,0,0,.85.36,1.21,1.21,0,0,0,.86-.36,1.14,1.14,0,0,0,.35-.86,1.16,1.16,0,0,0-.35-.87A1.29,1.29,0,0,0,58.23,6.41Z"/><path class="cls-5" d="M55,55.64s-.1,0-.13-.08l-.11-.1h-.09l-.24-.11c-.07,0-.14,0-.21,0h-.24a1.72,1.72,0,0,1-.21.07.45.45,0,0,0-.22.08,1.43,1.43,0,0,0-.2.14l-.05,0c-.07.07-.07.11-.11.14l-.11.11A20.11,20.11,0,1,1,30.68,26.23a1.23,1.23,0,0,0,.89-1.47,1.27,1.27,0,0,0-1.48-.91,22.56,22.56,0,0,0,5.6,44.4,22.27,22.27,0,0,0,10.58-2.67l12.86,12.9a5.77,5.77,0,0,0,4,1.66,5.69,5.69,0,0,0,4-1.66l1.32-1.29a5.77,5.77,0,0,0,1.66-4,5.68,5.68,0,0,0-1.66-4ZM66.74,75.46l-1.3,1.29a3.3,3.3,0,0,1-4.58,0L48.41,64.28a22.1,22.1,0,0,0,5.9-5.83L66.74,70.88a3.17,3.17,0,0,1,1,2.27A3.28,3.28,0,0,1,66.74,75.46Z"/><path class="cls-6" d="M26.27,36.29a13.76,13.76,0,0,1,3.19-2.35,1.23,1.23,0,0,0,.5-1.65,1.21,1.21,0,0,0-1.64-.51,15.39,15.39,0,0,0-3.76,2.78,15.76,15.76,0,0,0,21,23.49,1.19,1.19,0,0,0,.18-1.69A1.21,1.21,0,0,0,44,56.14,13.33,13.33,0,0,1,26.27,36.29Z"/><path class="cls-7" d="M50.13,54.63s0,0,0,0a.86.86,0,0,0,.43.11h0a.88.88,0,0,0,.45-.11s0,0,.06,0L68,47.1A1.2,1.2,0,0,0,68.74,46V28.36a1,1,0,0,0-.06-.33.14.14,0,0,1,0-.07,1,1,0,0,0-.1-.21s0-.07,0-.11-.1-.11-.17-.15,0,0-.09-.07,0,0-.07-.07-.07,0-.11,0a.42.42,0,0,1,0-.07l-16.9-7.53a1.14,1.14,0,0,0-1,0L33.21,27.24s0,.07-.06.07-.07,0-.11,0,0,0-.07.07-.07,0-.09.07-.09.11-.14.15l-.06.11a1,1,0,0,0-.1.21l0,.07a1.23,1.23,0,0,0,0,.33V46a1.17,1.17,0,0,0,.7,1.12ZM34.92,45.19v-15L40,32.54l9.37,4.18v15Zm31.39,0L51.84,51.67v-15l14.47-6.49Zm-15.7-10.6-5.94-2.66,13.92-6.2,6,2.63Zm0-12.43,5,2.2L41.69,30.59l-5-2.23Z"/></g></g></svg>